<?xml version="1.0" encoding="UTF-8" standalone="no"?>
<!-- Created with Inkscape (http://www.inkscape.org/) -->

<svg
   width="84.136215mm"
   height="27.745493mm"
   viewBox="0 0 84.136214 27.745492"
   version="1.1"
   id="svg34277"
   xml:space="preserve"
   xmlns:inkscape="http://www.inkscape.org/namespaces/inkscape"
   xmlns:sodipodi="http://sodipodi.sourceforge.net/DTD/sodipodi-0.dtd"
   xmlns="http://www.w3.org/2000/svg"
   xmlns:svg="http://www.w3.org/2000/svg"><sodipodi:namedview
     id="namedview34279"
     pagecolor="#ffffff"
     bordercolor="#000000"
     borderopacity="0.25"
     inkscape:showpageshadow="2"
     inkscape:pageopacity="0.0"
     inkscape:pagecheckerboard="0"
     inkscape:deskcolor="#d1d1d1"
     inkscape:document-units="mm"
     showgrid="false" /><defs
     id="defs34274"><clipPath
       clipPathUnits="userSpaceOnUse"
       id="clipPath34414"><path
         d="M 0,792 H 612 V 0 H 0 Z"
         id="path34412" /></clipPath></defs><g
     id="g34408"
     transform="matrix(0.35277776,0,0,-0.35277778,-54.633739,176.45365)"><g
       id="g34410"
       clip-path="url(#clipPath34414)"><g
         id="g34416"
         transform="translate(183.3104,460.7529)"><path
           d="m 0,0 c 0,0 7.887,14.383 39.608,28.49 17.491,7.778 42.999,11.896 52.838,10.752 9.839,-1.143 23.686,-3.203 19.678,-4.118 C 108.115,34.209 66.209,33.065 33.413,18.423 13.695,9.62 0,0 0,0"
           style="fill:#a6795a;fill-opacity:1;fill-rule:evenodd;stroke:none"
           id="path34418" /></g><g
         id="g34420"
         transform="translate(207.2493,467.9658)"><path
           d="m 0,0 c 0,0 24.05,14.871 55.389,20.59 25.042,4.571 54.66,4.576 60.49,2.059 7.579,-3.271 21.136,-9.151 17.127,-8.922 -4.008,0.229 -31.184,5.983 -55.389,4.576 C 38.262,16.015 0,0 0,0"
           style="fill:#1f5aa1;fill-opacity:1;fill-rule:evenodd;stroke:none"
           id="path34422" /></g><g
         id="g34424"
         transform="translate(251.7062,477.1171)"><path
           d="M 0,0 C 0,0 30.245,7.55 57.575,5.033 78.506,3.106 90.007,0.915 96.566,-1.601 103.852,-4.397 115.151,-14.413 112.6,-14.185 110.049,-13.956 75.795,-2.059 51.745,-0.229 27.694,1.601 0,0 0,0"
           style="fill:#97a9d5;fill-opacity:1;fill-rule:evenodd;stroke:none"
           id="path34426" /></g><g
         id="g34428"
         transform="translate(169.3263,437.5029)"><path
           d="M 0,0 V 7.783 H -5.55 V 0 h -8.309 V 21.642 H -5.55 V 14.169 H 0 v 7.473 H 8.31 V 0 Z"
           style="fill:#1f5aa1;fill-opacity:1;fill-rule:nonzero;stroke:none"
           id="path34430" /></g><g
         id="g34432"
         transform="translate(180.4523,437.5029)"><path
           d="M 0,0 V 21.642 H 18.759 V 16.433 H 8.124 v -3.069 h 10.17 V 8.155 H 8.124 V 5.209 H 18.976 V 0 Z"
           style="fill:#1f5aa1;fill-opacity:1;fill-rule:nonzero;stroke:none"
           id="path34434" /></g><g
         id="g34436"
         transform="translate(201.9664,437.5029)"><path
           d="M 0,0 V 21.642 H 8.31 V 6.387 h 10.2 L 18.51,0 Z"
           style="fill:#1f5aa1;fill-opacity:1;fill-rule:nonzero;stroke:none"
           id="path34438" /></g><g
         id="g34440"
         transform="translate(232.6583,448.7583)"><path
           d="m 0,0 c 2.666,0 3.906,0.868 3.906,2.79 0,1.799 -1.209,2.574 -3.813,2.574 H -1.923 V 0 Z M -10.015,-11.255 V 10.387 H 4.186 c 4,0 8.03,-1.985 8.03,-7.442 0,-5.612 -3.566,-7.968 -7.968,-7.968 h -5.954 v -6.232 z"
           style="fill:#1f5aa1;fill-opacity:1;fill-rule:nonzero;stroke:none"
           id="path34442" /></g><g
         id="g34444"
         transform="translate(276.7413,437.999)"><path
           d="m 0,0 c -1.86,-0.527 -4.124,-0.868 -5.953,-0.868 -7.442,0 -12.961,3.999 -12.961,11.503 0,7.07 5.768,10.883 12.992,10.883 2.077,0 2.821,-0.093 5.86,-0.682 v -5.705 c -1.489,0.465 -2.791,0.806 -4.155,0.806 -3.38,0 -6.201,-1.768 -6.201,-5.426 0,-3.659 2.418,-5.612 5.922,-5.612 1.519,0 2.976,0.31 4.496,0.837 z"
           style="fill:#1f5aa1;fill-opacity:1;fill-rule:nonzero;stroke:none"
           id="path34446" /></g><g
         id="g34448"
         transform="translate(278.5978,437.5029)"><path
           d="M 0,0 V 21.642 H 18.758 V 16.433 H 8.123 v -3.069 h 10.17 V 8.155 H 8.123 V 5.209 H 18.976 V 0 Z"
           style="fill:#1f5aa1;fill-opacity:1;fill-rule:nonzero;stroke:none"
           id="path34450" /></g><g
         id="g34452"
         transform="translate(311.3663,437.5029)"><path
           d="M 0,0 -4.217,15.689 H -4.278 V 0 H -11.41 V 21.642 H 1.023 l 4,-15.255 h 0.062 v 15.255 h 7.132 L 12.217,0 Z"
           style="fill:#1f5aa1;fill-opacity:1;fill-rule:nonzero;stroke:none"
           id="path34454" /></g><g
         id="g34456"
         transform="translate(332.6007,437.5029)"><path
           d="m 0,0 v 15.255 h -7.318 v 6.387 H 15.627 V 15.255 H 8.309 V 0 Z"
           style="fill:#1f5aa1;fill-opacity:1;fill-rule:nonzero;stroke:none"
           id="path34458" /></g><g
         id="g34460"
         transform="translate(349.8038,437.5029)"><path
           d="M 0,0 V 21.642 H 18.758 V 16.433 H 8.123 v -3.069 h 10.17 V 8.155 H 8.123 V 5.209 H 18.976 V 0 Z"
           style="fill:#1f5aa1;fill-opacity:1;fill-rule:nonzero;stroke:none"
           id="path34462" /></g><g
         id="g34464"
         transform="translate(381.3947,449.688)"><path
           d="M 0,0 C 2.295,0 3.132,0.775 3.132,2.419 3.132,4.217 1.706,4.62 0,4.62 H -2.418 V 0 Z m 3.317,-12.185 c -0.123,0.465 -0.248,1.488 -0.433,3.039 -0.434,3.503 -0.9,4.309 -3.008,4.309 h -1.922 v -7.348 h -8.309 V 9.457 H 3.132 c 5.426,0 8.309,-1.829 8.309,-5.767 0,-3.007 -1.705,-4.899 -5.177,-5.736 v -0.062 c 1.612,-0.279 3.1,-1.117 3.937,-2.884 0.868,-1.829 0.992,-5.271 1.768,-7.193 z"
           style="fill:#1f5aa1;fill-opacity:1;fill-rule:nonzero;stroke:none"
           id="path34466" /></g><g
         id="g34468"
         transform="translate(155.7003,433.3491)"><path
           d="M 0,0 C 0.272,0 0.561,0.034 0.833,0.085 0.765,-1.428 0.697,-2.941 0.697,-4.097 v -1.139 c 0,-0.102 0.034,-0.153 0.102,-0.153 0.119,0 0.357,0.255 0.833,0.68 1.037,0.901 3.757,3.893 4.521,4.794 C 6.408,0.034 6.595,0 6.85,0 7.105,0 7.377,0.034 7.666,0.085 5.949,-1.445 3.553,-3.706 2.227,-5.219 l 5.626,-6.425 c -0.357,0.051 -0.68,0.085 -1.02,0.085 -0.323,0 -0.612,-0.034 -0.935,-0.085 l -1.903,2.329 c -1.071,1.292 -3.009,3.654 -3.196,3.654 -0.085,0 -0.102,-0.085 -0.102,-0.152 0,-1.497 0,-2.415 0.017,-2.976 l 0.119,-2.855 c -0.289,0.051 -0.561,0.085 -0.833,0.085 -0.272,0 -0.51,-0.034 -0.833,-0.085 0.068,1.496 0.136,3.009 0.136,4.182 v 3.365 c 0,1.173 -0.068,2.686 -0.136,4.182 C -0.51,0.034 -0.272,0 0,0"
           style="fill:#1f5aa1;fill-opacity:1;fill-rule:nonzero;stroke:none"
           id="path34470" /></g><g
         id="g34472"
         transform="translate(166.087,434.4878)"><path
           d="M 0,0 C 0.255,0 0.493,0.034 0.765,0.085 0.68,-0.646 0.629,-3.417 0.629,-4.556 v -3.586 c 0,-1.156 0.051,-3.91 0.136,-4.641 -0.272,0.051 -0.51,0.085 -0.765,0.085 -0.255,0 -0.493,-0.034 -0.765,-0.085 0.136,1.343 0.136,3.961 0.136,4.641 v 3.586 c 0,0.698 0,3.264 -0.136,4.641 C -0.493,0.034 -0.255,0 0,0"
           style="fill:#1f5aa1;fill-opacity:1;fill-rule:nonzero;stroke:none"
           id="path34474" /></g><g
         id="g34476"
         transform="translate(172.0367,422.249)"><path
           d="M 0,0 C 0.748,0 1.53,0.425 2.006,1.19 L 2.074,3.74 C 1.921,3.688 1.479,3.586 0.663,3.434 -0.901,3.145 -1.479,2.55 -1.479,1.615 -1.479,0.612 -0.816,0 0,0 m 3.366,5.202 c 0,-1.157 -0.068,-2.567 -0.068,-3.859 0,-0.867 0.068,-1.326 0.663,-1.326 0.119,0 0.204,0 0.357,0.068 V -0.289 C 4.046,-0.408 3.655,-0.527 3.23,-0.527 c -0.629,0 -1.088,0.374 -1.173,1.054 -0.952,-0.952 -1.632,-1.241 -2.669,-1.241 -1.173,0 -2.261,0.85 -2.261,2.091 0,1.241 0.783,2.006 2.142,2.278 0.663,0.136 1.394,0.203 2.023,0.39 0.663,0.187 0.782,0.307 0.782,0.851 0,1.359 -0.646,2.141 -1.87,2.141 -0.884,0 -1.717,-0.408 -2.141,-1.156 h -0.188 v 0.884 c 0.884,0.663 1.649,0.986 2.737,0.986 1.581,0 2.754,-0.935 2.754,-2.549"
           style="fill:#1f5aa1;fill-opacity:1;fill-rule:nonzero;stroke:none"
           id="path34478" /></g><g
         id="g34480"
         transform="translate(184.5656,428.3174)"><path
           d="m 0,0 h 0.034 c 0.561,1.105 1.513,1.683 2.737,1.683 1.648,0 2.601,-0.918 2.601,-2.703 0,-0.459 -0.102,-2.125 -0.102,-3.723 0,-0.816 0,-1.275 0.05,-1.869 -0.255,0.05 -0.475,0.085 -0.731,0.085 -0.255,0 -0.492,-0.035 -0.747,-0.085 0.068,0.679 0.17,2.567 0.17,5.286 0,1.615 -0.748,2.125 -1.785,2.125 C 1.462,0.799 0.867,0.459 0.527,0 0.204,-0.425 0.119,-0.799 0.119,-2.516 v -1.257 c 0,-0.629 0.017,-1.479 0.085,-2.839 -0.272,0.05 -0.527,0.085 -0.748,0.085 -0.255,0 -0.459,-0.035 -0.748,-0.085 0.085,1.07 0.153,2.567 0.153,3.926 v 1.19 c 0,0.765 -0.068,1.139 -0.323,1.53 -0.323,0.527 -0.918,0.765 -1.411,0.765 -1.444,0 -2.158,-1.071 -2.158,-2.72 v -2.057 c 0,-0.713 0.051,-1.853 0.135,-2.634 -0.289,0.05 -0.543,0.085 -0.765,0.085 -0.255,0 -0.492,-0.035 -0.764,-0.085 0.135,1.036 0.135,2.311 0.135,2.991 v 2.125 c 0,1.241 -0.05,2.244 -0.135,3.009 0.272,-0.051 0.509,-0.085 0.764,-0.085 0.171,0 0.391,0.034 0.681,0.085 C -5.015,1.02 -5.031,0.561 -5.031,0.153 h 0.033 c 0.629,1.02 1.462,1.53 2.533,1.53 C -1.326,1.683 -0.272,1.02 0,0"
           style="fill:#1f5aa1;fill-opacity:1;fill-rule:nonzero;stroke:none"
           id="path34482" /></g><g
         id="g34484"
         transform="translate(194.6974,422.249)"><path
           d="M 0,0 C 0.748,0 1.53,0.425 2.006,1.19 L 2.074,3.74 C 1.921,3.688 1.479,3.586 0.663,3.434 -0.901,3.145 -1.479,2.55 -1.479,1.615 -1.479,0.612 -0.816,0 0,0 m 3.366,5.202 c 0,-1.157 -0.068,-2.567 -0.068,-3.859 0,-0.867 0.068,-1.326 0.663,-1.326 0.119,0 0.204,0 0.357,0.068 V -0.289 C 4.046,-0.408 3.655,-0.527 3.23,-0.527 c -0.629,0 -1.088,0.374 -1.173,1.054 -0.952,-0.952 -1.632,-1.241 -2.669,-1.241 -1.173,0 -2.261,0.85 -2.261,2.091 0,1.241 0.782,2.006 2.143,2.278 0.662,0.136 1.393,0.203 2.022,0.39 0.663,0.187 0.782,0.307 0.782,0.851 0,1.359 -0.646,2.141 -1.87,2.141 -0.884,0 -1.717,-0.408 -2.141,-1.156 h -0.188 v 0.884 c 0.884,0.663 1.649,0.986 2.737,0.986 1.581,0 2.754,-0.935 2.754,-2.549"
           style="fill:#1f5aa1;fill-opacity:1;fill-rule:nonzero;stroke:none"
           id="path34486" /></g><g
         id="g34488"
         transform="translate(202.3649,432.1079)"><path
           d="M 0,0 H 0.085 C 0.017,-0.884 0,-1.564 -0.051,-2.516 c 0.459,0 1.309,0.051 1.801,0.051 -0.016,-0.068 -0.016,-0.374 -0.016,-0.425 0,-0.152 0,-0.237 0.016,-0.289 -0.39,0.017 -0.985,0.034 -1.206,0.034 h -0.595 c -0.051,-0.476 -0.119,-3.314 -0.119,-4.368 0,-1.292 0.085,-2.516 1.36,-2.516 0.255,0 0.578,0.051 0.782,0.119 v -0.408 c -0.425,-0.153 -0.901,-0.255 -1.309,-0.255 -1.394,0 -2.091,0.714 -2.091,2.159 0,0.765 0.102,2.737 0.119,5.269 -0.595,0 -0.969,-0.017 -1.156,-0.034 0.051,0.187 0.034,0.255 0.034,0.391 0,0.12 -0.017,0.222 -0.034,0.34 0.612,-0.051 0.935,-0.051 1.122,-0.051 l -0.068,1.904 z"
           style="fill:#1f5aa1;fill-opacity:1;fill-rule:nonzero;stroke:none"
           id="path34490" /></g><g
         id="g34492"
         transform="translate(206.3937,434.4878)"><path
           d="M 0,0 C 0.255,0 0.493,0.034 0.765,0.085 0.68,-0.765 0.629,-3.757 0.629,-4.471 v -1.547 h 0.034 c 0.629,0.97 1.479,1.53 2.703,1.53 1.699,0 2.737,-0.986 2.737,-2.974 0,-0.901 -0.068,-1.921 -0.068,-3.213 v -0.85 c 0,-0.323 0.033,-0.952 0.033,-1.258 -0.288,0.051 -0.492,0.085 -0.714,0.085 -0.22,0 -0.424,-0.034 -0.696,-0.085 0,0.969 0.119,2.499 0.119,3.604 v 1.309 c 0,1.411 -0.629,2.498 -1.87,2.498 -1.445,0 -2.278,-0.849 -2.278,-2.838 0,-0.952 0.051,-3.757 0.136,-4.573 -0.289,0.051 -0.544,0.085 -0.765,0.085 -0.255,0 -0.493,-0.034 -0.765,-0.085 0.136,1.343 0.136,3.961 0.136,4.641 v 3.586 c 0,0.698 0,3.264 -0.136,4.641 C -0.493,0.034 -0.255,0 0,0"
           style="fill:#1f5aa1;fill-opacity:1;fill-rule:nonzero;stroke:none"
           id="path34494" /></g><g
         id="g34496"
         transform="translate(221.5748,425.6655)"><path
           d="m 0,0 c 0,-0.816 0.051,-1.887 0.102,-3.247 0.459,-0.05 1.105,-0.085 1.632,-0.085 1.632,0 2.771,1.156 2.771,2.856 0,0.561 -0.136,1.02 -0.391,1.377 -0.493,0.714 -1.428,1.02 -3.638,1.02 H 0 Z M 0,3.995 V 2.55 h 0.986 c 1.547,0 3.179,0.578 3.179,2.448 C 4.165,6.375 3.383,7.14 1.343,7.14 0.935,7.14 0.51,7.123 0.102,7.054 0.085,6.035 0,4.828 0,3.995 m 0.255,3.689 c 0.612,0 1.207,0.085 1.819,0.085 2.447,0 3.587,-0.816 3.587,-2.448 0,-1.496 -0.935,-2.516 -2.856,-2.975 V 2.312 c 2.362,-0.153 3.263,-1.054 3.263,-2.958 0,-2.04 -1.869,-3.314 -4.3,-3.314 -0.544,0 -1.105,0.085 -1.666,0.085 -0.493,0 -1.037,-0.018 -1.632,-0.085 0.068,1.495 0.136,3.025 0.136,4.198 v 3.366 c 0,0.391 -0.085,2.805 -0.136,4.165 0.408,-0.052 1.241,-0.085 1.785,-0.085"
           style="fill:#1f5aa1;fill-opacity:1;fill-rule:nonzero;stroke:none"
           id="path34498" /></g><g
         id="g34500"
         transform="translate(232.4884,422.249)"><path
           d="M 0,0 C 0.748,0 1.53,0.425 2.006,1.19 L 2.074,3.74 C 1.921,3.688 1.479,3.586 0.663,3.434 -0.901,3.145 -1.479,2.55 -1.479,1.615 -1.479,0.612 -0.816,0 0,0 m 3.366,5.202 c 0,-1.157 -0.068,-2.567 -0.068,-3.859 0,-0.867 0.068,-1.326 0.663,-1.326 0.119,0 0.204,0 0.357,0.068 V -0.289 C 4.046,-0.408 3.655,-0.527 3.23,-0.527 c -0.629,0 -1.088,0.374 -1.173,1.054 -0.952,-0.952 -1.632,-1.241 -2.669,-1.241 -1.173,0 -2.261,0.85 -2.261,2.091 0,1.241 0.782,2.006 2.143,2.278 0.662,0.136 1.393,0.203 2.022,0.39 0.663,0.187 0.782,0.307 0.782,0.851 0,1.359 -0.646,2.141 -1.87,2.141 -0.884,0 -1.717,-0.408 -2.141,-1.156 h -0.188 v 0.884 c 0.884,0.663 1.649,0.986 2.737,0.986 1.581,0 2.754,-0.935 2.754,-2.549"
           style="fill:#1f5aa1;fill-opacity:1;fill-rule:nonzero;stroke:none"
           id="path34502" /></g><g
         id="g34504"
         transform="translate(242.8756,429.5244)"><path
           d="m 0,0 c -0.221,-0.408 -0.391,-1.02 -0.408,-1.207 h -0.204 c -0.221,0.663 -0.816,1.054 -1.496,1.054 -0.799,0 -1.445,-0.561 -1.445,-1.428 0,-0.748 0.459,-1.173 1.428,-1.445 1.428,-0.408 2.584,-0.697 2.584,-2.261 0,-1.377 -1.224,-2.702 -3.077,-2.702 -0.952,0 -1.564,0.22 -2.175,0.561 0.186,0.407 0.322,0.969 0.322,1.241 h 0.204 c 0.357,-0.664 1.122,-1.173 1.921,-1.173 0.952,0 1.649,0.577 1.649,1.529 0,0.731 -0.493,1.139 -1.513,1.428 -1.496,0.408 -2.498,0.816 -2.498,2.312 0,1.564 1.121,2.567 2.821,2.567 C -1.02,0.476 -0.221,0.051 0,0"
           style="fill:#1f5aa1;fill-opacity:1;fill-rule:nonzero;stroke:none"
           id="path34506" /></g><g
         id="g34508"
         transform="translate(246.3776,429.7451)"><path
           d="M 0,0 C 0.255,0 0.476,0.017 0.765,0.085 0.68,-0.68 0.629,-2.193 0.629,-2.923 v -2.108 c 0,-1.156 0.051,-2.142 0.136,-3.009 -0.289,0.051 -0.544,0.085 -0.765,0.085 -0.255,0 -0.493,-0.034 -0.765,-0.085 0.136,1.071 0.136,2.311 0.136,2.992 v 2.295 c 0,1.019 -0.051,1.954 -0.136,2.838 C -0.476,0.017 -0.221,0 0,0 M 0.867,3.043 C 0.867,2.567 0.476,2.176 0,2.176 c -0.476,0 -0.867,0.391 -0.867,0.867 0,0.493 0.408,0.867 0.867,0.867 0.459,0 0.867,-0.374 0.867,-0.867"
           style="fill:#1f5aa1;fill-opacity:1;fill-rule:nonzero;stroke:none"
           id="path34510" /></g><g
         id="g34512"
         transform="translate(256.9,426.9917)"><path
           d="m 0,0 c 0,-0.901 -0.068,-1.887 -0.068,-3.179 0,-1.496 0.034,-1.801 0.034,-2.108 -0.289,0.068 -0.493,0.085 -0.714,0.085 -0.221,0 -0.425,-0.017 -0.697,-0.085 0,0.969 0.119,2.499 0.119,3.604 v 1.309 c 0,1.411 -0.629,2.499 -1.87,2.499 -1.495,0 -2.278,-0.952 -2.278,-2.72 v -2.04 c 0,-0.731 0.052,-1.886 0.137,-2.652 -0.272,0.051 -0.51,0.085 -0.766,0.085 -0.254,0 -0.492,-0.034 -0.764,-0.085 0.136,1.071 0.136,2.312 0.136,2.992 V 0 c 0,1.02 -0.051,1.955 -0.136,2.838 0.289,-0.067 0.544,-0.085 0.764,-0.085 0.17,0 0.392,0.035 0.681,0.085 C -5.439,2.55 -5.474,1.887 -5.474,1.479 h 0.035 C -4.811,2.448 -3.96,3.008 -2.737,3.008 -1.037,3.008 0,2.04 0,0"
           style="fill:#1f5aa1;fill-opacity:1;fill-rule:nonzero;stroke:none"
           id="path34514" /></g><g
         id="g34516"
         transform="translate(265.9786,425.6655)"><path
           d="m 0,0 c 0,-0.816 0.051,-1.887 0.102,-3.247 0.459,-0.05 1.105,-0.085 1.632,-0.085 1.632,0 2.771,1.156 2.771,2.856 0,0.561 -0.136,1.02 -0.391,1.377 -0.493,0.714 -1.428,1.02 -3.638,1.02 H 0 Z M 0,3.995 V 2.55 h 0.986 c 1.547,0 3.179,0.578 3.179,2.448 C 4.165,6.375 3.383,7.14 1.343,7.14 0.935,7.14 0.51,7.123 0.102,7.054 0.085,6.035 0,4.828 0,3.995 m 0.255,3.689 c 0.612,0 1.207,0.085 1.819,0.085 2.447,0 3.587,-0.816 3.587,-2.448 0,-1.496 -0.935,-2.516 -2.856,-2.975 V 2.312 c 2.362,-0.153 3.263,-1.054 3.263,-2.958 0,-2.04 -1.869,-3.314 -4.3,-3.314 -0.544,0 -1.105,0.085 -1.666,0.085 -0.493,0 -1.037,-0.018 -1.632,-0.085 0.068,1.495 0.136,3.025 0.136,4.198 v 3.366 c 0,0.391 -0.085,2.805 -0.136,4.165 0.408,-0.052 1.241,-0.085 1.785,-0.085"
           style="fill:#1f5aa1;fill-opacity:1;fill-rule:nonzero;stroke:none"
           id="path34518" /></g><g
         id="g34520"
         transform="translate(277.6573,426.4644)"><path
           d="M 0,0 C 0.595,0 1.598,0.051 2.261,0.051 2.244,2.006 1.547,2.992 0.17,2.992 -1.139,2.992 -2.023,1.887 -2.21,0.051 -1.547,0.051 -0.272,0 0,0 M 3.655,0.051 V -0.238 L 3.621,-0.595 c -1.02,0.017 -2.125,0.051 -3.332,0.051 -0.816,0 -1.666,-0.034 -2.533,-0.051 -0.017,-0.085 -0.017,-0.322 -0.017,-0.374 0,-2.108 1.224,-3.246 2.924,-3.246 0.867,0 1.904,0.476 2.566,1.207 L 3.314,-3.06 3.213,-3.893 C 2.329,-4.572 1.258,-4.929 0.357,-4.929 c -2.363,0 -4.114,1.682 -4.114,4.012 0,2.787 1.428,4.453 3.893,4.453 2.176,0 3.519,-1.377 3.519,-3.485"
           style="fill:#1f5aa1;fill-opacity:1;fill-rule:nonzero;stroke:none"
           id="path34522" /></g><g
         id="g34524"
         transform="translate(283.8624,434.4878)"><path
           d="M 0,0 C 0.255,0 0.493,0.034 0.765,0.085 0.68,-0.765 0.629,-3.757 0.629,-4.471 v -1.547 h 0.034 c 0.629,0.97 1.479,1.53 2.703,1.53 1.699,0 2.737,-0.986 2.737,-2.974 0,-0.901 -0.068,-1.921 -0.068,-3.213 v -0.85 c 0,-0.323 0.033,-0.952 0.033,-1.258 -0.288,0.051 -0.492,0.085 -0.714,0.085 -0.22,0 -0.424,-0.034 -0.696,-0.085 0,0.969 0.119,2.499 0.119,3.604 v 1.309 c 0,1.411 -0.629,2.498 -1.87,2.498 -1.445,0 -2.278,-0.849 -2.278,-2.838 0,-0.952 0.051,-3.757 0.136,-4.573 -0.289,0.051 -0.544,0.085 -0.765,0.085 -0.255,0 -0.493,-0.034 -0.765,-0.085 0.136,1.343 0.136,3.961 0.136,4.641 v 3.586 c 0,0.698 0,3.264 -0.136,4.641 C -0.493,0.034 -0.255,0 0,0"
           style="fill:#1f5aa1;fill-opacity:1;fill-rule:nonzero;stroke:none"
           id="path34526" /></g><g
         id="g34528"
         transform="translate(294.8444,422.249)"><path
           d="M 0,0 C 0.748,0 1.53,0.425 2.006,1.19 L 2.074,3.74 C 1.921,3.688 1.479,3.586 0.663,3.434 -0.901,3.145 -1.479,2.55 -1.479,1.615 -1.479,0.612 -0.816,0 0,0 m 3.366,5.202 c 0,-1.157 -0.068,-2.567 -0.068,-3.859 0,-0.867 0.068,-1.326 0.663,-1.326 0.119,0 0.204,0 0.357,0.068 V -0.289 C 4.046,-0.408 3.655,-0.527 3.23,-0.527 c -0.629,0 -1.088,0.374 -1.173,1.054 -0.952,-0.952 -1.632,-1.241 -2.669,-1.241 -1.173,0 -2.261,0.85 -2.261,2.091 0,1.241 0.783,2.006 2.142,2.278 0.663,0.136 1.394,0.203 2.023,0.39 0.663,0.187 0.782,0.307 0.782,0.851 0,1.359 -0.646,2.141 -1.87,2.141 -0.884,0 -1.717,-0.408 -2.141,-1.156 h -0.188 v 0.884 c 0.884,0.663 1.649,0.986 2.737,0.986 1.581,0 2.754,-0.935 2.754,-2.549"
           style="fill:#1f5aa1;fill-opacity:1;fill-rule:nonzero;stroke:none"
           id="path34530" /></g><g
         id="g34532"
         transform="translate(300.4552,429.7451)"><path
           d="M 0,0 C 0.255,0 0.476,0.034 0.748,0.085 1.445,-2.142 2.261,-4.284 3.28,-6.544 3.875,-5.303 4.283,-4.284 5.881,0.085 6.051,0.034 6.221,0 6.408,0 6.612,0 6.748,0.034 6.935,0.085 L 5.167,-3.91 C 4.555,-5.32 4.011,-6.68 3.519,-8.04 3.349,-7.989 3.179,-7.955 2.992,-7.955 2.788,-7.955 2.703,-7.972 2.448,-8.04 1.36,-5.252 0.391,-2.652 -0.85,0.085 -0.493,0.017 -0.255,0 0,0"
           style="fill:#1f5aa1;fill-opacity:1;fill-rule:nonzero;stroke:none"
           id="path34534" /></g><g
         id="g34536"
         transform="translate(310.1105,429.7451)"><path
           d="M 0,0 C 0.256,0 0.477,0.017 0.766,0.085 0.681,-0.68 0.629,-2.193 0.629,-2.923 v -2.108 c 0,-1.156 0.052,-2.142 0.137,-3.009 -0.289,0.051 -0.544,0.085 -0.766,0.085 -0.255,0 -0.492,-0.034 -0.765,-0.085 0.136,1.071 0.136,2.311 0.136,2.992 v 2.295 c 0,1.019 -0.051,1.954 -0.136,2.838 C -0.476,0.017 -0.221,0 0,0 M 0.867,3.043 C 0.867,2.567 0.477,2.176 0,2.176 c -0.476,0 -0.866,0.391 -0.866,0.867 0,0.493 0.407,0.867 0.866,0.867 0.459,0 0.867,-0.374 0.867,-0.867"
           style="fill:#1f5aa1;fill-opacity:1;fill-rule:nonzero;stroke:none"
           id="path34538" /></g><g
         id="g34540"
         transform="translate(317.1993,422.0791)"><path
           d="m 0,0 c 1.717,0 2.635,1.309 2.635,3.688 0,2.363 -0.884,3.689 -2.652,3.689 -1.7,0 -2.618,-1.292 -2.618,-3.689 C -2.635,1.309 -1.7,0 0,0 m 4.131,3.688 c 0,-2.804 -1.854,-4.232 -4.114,-4.232 -2.38,0 -4.148,1.53 -4.148,4.13 0,3.468 2.398,4.335 4.114,4.335 2.379,0 4.148,-1.513 4.148,-4.233"
           style="fill:#1f5aa1;fill-opacity:1;fill-rule:nonzero;stroke:none"
           id="path34542" /></g><g
         id="g34544"
         transform="translate(327.3488,429.8984)"><path
           d="m 0,0 c -0.052,-0.119 -0.119,-0.408 -0.119,-1.139 v -0.238 l -0.119,-0.085 c -0.188,0.187 -0.544,0.272 -0.833,0.272 -1.088,0 -1.734,-1.02 -1.734,-2.329 v -2.312 c 0,-1.02 0.017,-1.801 0.068,-2.362 -0.255,0.05 -0.476,0.085 -0.68,0.085 -0.221,0 -0.442,-0.035 -0.714,-0.085 0.051,0.459 0.069,1.02 0.069,1.818 v 3.791 c 0,0.731 -0.018,2.006 -0.069,2.516 0.323,-0.068 0.51,-0.085 0.714,-0.085 0.204,0 0.425,0.034 0.68,0.085 l -0.068,-0.85 c -0.017,-0.187 -0.017,-0.459 -0.017,-0.799 l 0.034,-0.017 c 0.663,1.224 1.444,1.836 2.261,1.836 C -0.323,0.102 -0.204,0.068 0,0"
           style="fill:#1f5aa1;fill-opacity:1;fill-rule:nonzero;stroke:none"
           id="path34546" /></g><g
         id="g34548"
         transform="translate(330.9698,422.249)"><path
           d="M 0,0 C 0.748,0 1.529,0.425 2.006,1.19 L 2.073,3.74 C 1.921,3.688 1.479,3.586 0.663,3.434 -0.901,3.145 -1.479,2.55 -1.479,1.615 -1.479,0.612 -0.816,0 0,0 m 3.365,5.202 c 0,-1.157 -0.067,-2.567 -0.067,-3.859 0,-0.867 0.067,-1.326 0.662,-1.326 0.119,0 0.204,0 0.357,0.068 V -0.289 C 4.045,-0.408 3.654,-0.527 3.229,-0.527 c -0.628,0 -1.087,0.374 -1.172,1.054 -0.953,-0.952 -1.632,-1.241 -2.669,-1.241 -1.173,0 -2.261,0.85 -2.261,2.091 0,1.241 0.782,2.006 2.142,2.278 0.663,0.136 1.394,0.203 2.023,0.39 0.662,0.187 0.781,0.307 0.781,0.851 0,1.359 -0.645,2.141 -1.869,2.141 -0.885,0 -1.717,-0.408 -2.142,-1.156 h -0.187 v 0.884 c 0.884,0.663 1.648,0.986 2.736,0.986 1.581,0 2.754,-0.935 2.754,-2.549"
           style="fill:#1f5aa1;fill-opacity:1;fill-rule:nonzero;stroke:none"
           id="path34550" /></g><g
         id="g34552"
         transform="translate(338.2452,434.4878)"><path
           d="M 0,0 C 0.256,0 0.493,0.034 0.766,0.085 0.681,-0.646 0.629,-3.417 0.629,-4.556 v -3.586 c 0,-1.156 0.052,-3.91 0.137,-4.641 -0.273,0.051 -0.51,0.085 -0.766,0.085 -0.255,0 -0.492,-0.034 -0.765,-0.085 0.136,1.343 0.136,3.961 0.136,4.641 v 3.586 c 0,0.698 0,3.264 -0.136,4.641 C -0.492,0.034 -0.255,0 0,0"
           style="fill:#1f5aa1;fill-opacity:1;fill-rule:nonzero;stroke:none"
           id="path34554" /></g><g
         id="g34556"
         transform="translate(347.6964,433.3491)"><path
           d="M 0,0 C 0.272,0 0.562,0.034 0.833,0.085 0.766,-1.598 0.697,-2.788 0.697,-4.08 v -0.833 c 1.768,-0.034 2.958,-0.051 3.553,-0.051 0.595,0 1.785,0.017 3.553,0.051 v 0.527 c 0,1.666 -0.051,2.227 -0.136,4.471 C 7.989,0.034 8.228,0 8.5,0 8.771,0 9.061,0.034 9.332,0.085 9.265,-1.428 9.196,-2.941 9.196,-4.097 v -3.365 c 0,-1.156 0.069,-2.686 0.136,-4.182 -0.288,0.068 -0.561,0.085 -0.832,0.085 -0.272,0 -0.511,-0.017 -0.833,-0.085 0.067,1.496 0.136,3.009 0.136,4.182 v 1.75 c 0.135,0 -2.533,0.034 -3.553,0.034 -0.425,0 -1.598,-0.017 -3.553,-0.034 v -1.75 c 0,-1.156 0.069,-2.686 0.136,-4.182 -0.289,0.068 -0.561,0.085 -0.833,0.085 -0.271,0 -0.51,-0.017 -0.832,-0.085 0.067,1.496 0.136,3.009 0.136,4.182 v 3.365 c 0,1.173 -0.069,2.686 -0.136,4.182 C -0.51,0.034 -0.271,0 0,0"
           style="fill:#1f5aa1;fill-opacity:1;fill-rule:nonzero;stroke:none"
           id="path34558" /></g><g
         id="g34560"
         transform="translate(362.9113,426.4644)"><path
           d="M 0,0 C 0.595,0 1.598,0.051 2.261,0.051 2.244,2.006 1.547,2.992 0.17,2.992 -1.139,2.992 -2.022,1.887 -2.21,0.051 -1.547,0.051 -0.271,0 0,0 M 3.654,0.051 V -0.238 L 3.621,-0.595 c -1.02,0.017 -2.125,0.051 -3.332,0.051 -0.816,0 -1.666,-0.034 -2.533,-0.051 -0.017,-0.085 -0.017,-0.322 -0.017,-0.374 0,-2.108 1.224,-3.246 2.924,-3.246 0.867,0 1.903,0.476 2.566,1.207 L 3.314,-3.06 3.213,-3.893 C 2.329,-4.572 1.258,-4.929 0.357,-4.929 c -2.363,0 -4.114,1.682 -4.114,4.012 0,2.787 1.428,4.453 3.893,4.453 2.176,0 3.518,-1.377 3.518,-3.485"
           style="fill:#1f5aa1;fill-opacity:1;fill-rule:nonzero;stroke:none"
           id="path34562" /></g><g
         id="g34564"
         transform="translate(370.6466,422.249)"><path
           d="M 0,0 C 0.748,0 1.529,0.425 2.006,1.19 L 2.073,3.74 C 1.921,3.688 1.479,3.586 0.663,3.434 -0.901,3.145 -1.479,2.55 -1.479,1.615 -1.479,0.612 -0.816,0 0,0 m 3.365,5.202 c 0,-1.157 -0.067,-2.567 -0.067,-3.859 0,-0.867 0.067,-1.326 0.662,-1.326 0.119,0 0.204,0 0.357,0.068 V -0.289 C 4.045,-0.408 3.654,-0.527 3.229,-0.527 c -0.628,0 -1.087,0.374 -1.172,1.054 -0.953,-0.952 -1.632,-1.241 -2.669,-1.241 -1.173,0 -2.261,0.85 -2.261,2.091 0,1.241 0.782,2.006 2.142,2.278 0.663,0.136 1.394,0.203 2.023,0.39 0.662,0.187 0.781,0.307 0.781,0.851 0,1.359 -0.645,2.141 -1.869,2.141 -0.885,0 -1.717,-0.408 -2.142,-1.156 h -0.187 v 0.884 c 0.884,0.663 1.648,0.986 2.736,0.986 1.581,0 2.754,-0.935 2.754,-2.549"
           style="fill:#1f5aa1;fill-opacity:1;fill-rule:nonzero;stroke:none"
           id="path34566" /></g><g
         id="g34568"
         transform="translate(377.922,434.4878)"><path
           d="M 0,0 C 0.256,0 0.493,0.034 0.766,0.085 0.681,-0.646 0.63,-3.417 0.63,-4.556 v -3.586 c 0,-1.156 0.051,-3.91 0.136,-4.641 -0.273,0.051 -0.51,0.085 -0.766,0.085 -0.255,0 -0.492,-0.034 -0.765,-0.085 0.136,1.343 0.136,3.961 0.136,4.641 v 3.586 c 0,0.698 0,3.264 -0.136,4.641 C -0.492,0.034 -0.255,0 0,0"
           style="fill:#1f5aa1;fill-opacity:1;fill-rule:nonzero;stroke:none"
           id="path34570" /></g><g
         id="g34572"
         transform="translate(383.0392,432.1079)"><path
           d="M 0,0 H 0.085 C 0.017,-0.884 0,-1.564 -0.051,-2.516 c 0.459,0 1.309,0.051 1.802,0.051 -0.018,-0.068 -0.018,-0.374 -0.018,-0.425 0,-0.152 0,-0.237 0.018,-0.289 -0.392,0.017 -0.986,0.034 -1.207,0.034 h -0.595 c -0.052,-0.476 -0.119,-3.314 -0.119,-4.368 0,-1.292 0.085,-2.516 1.359,-2.516 0.255,0 0.579,0.051 0.783,0.119 v -0.408 c -0.425,-0.153 -0.902,-0.255 -1.309,-0.255 -1.394,0 -2.091,0.714 -2.091,2.159 0,0.765 0.102,2.737 0.119,5.269 -0.595,0 -0.969,-0.017 -1.156,-0.034 0.051,0.187 0.034,0.255 0.034,0.391 0,0.12 -0.017,0.222 -0.034,0.34 0.612,-0.051 0.935,-0.051 1.122,-0.051 l -0.068,1.904 z"
           style="fill:#1f5aa1;fill-opacity:1;fill-rule:nonzero;stroke:none"
           id="path34574" /></g><g
         id="g34576"
         transform="translate(387.0675,434.4878)"><path
           d="M 0,0 C 0.255,0 0.493,0.034 0.765,0.085 0.68,-0.765 0.629,-3.757 0.629,-4.471 v -1.547 h 0.034 c 0.629,0.97 1.479,1.53 2.703,1.53 1.699,0 2.737,-0.986 2.737,-2.974 0,-0.901 -0.069,-1.921 -0.069,-3.213 v -0.85 c 0,-0.323 0.034,-0.952 0.034,-1.258 -0.289,0.051 -0.493,0.085 -0.714,0.085 -0.22,0 -0.424,-0.034 -0.697,-0.085 0,0.969 0.119,2.499 0.119,3.604 v 1.309 c 0,1.411 -0.629,2.498 -1.869,2.498 -1.445,0 -2.278,-0.849 -2.278,-2.838 0,-0.952 0.051,-3.757 0.136,-4.573 -0.288,0.051 -0.544,0.085 -0.765,0.085 -0.255,0 -0.493,-0.034 -0.765,-0.085 0.136,1.343 0.136,3.961 0.136,4.641 v 3.586 c 0,0.698 0,3.264 -0.136,4.641 C -0.493,0.034 -0.255,0 0,0"
           style="fill:#1f5aa1;fill-opacity:1;fill-rule:nonzero;stroke:none"
           id="path34578" /></g></g></g></svg>
