<?xml version="1.0" encoding="UTF-8" standalone="no"?>
<!-- Created with Inkscape (http://www.inkscape.org/) -->

<svg
   width="82.773621mm"
   height="36.843243mm"
   viewBox="0 0 82.773618 36.843243"
   version="1.1"
   id="svg1281"
   xml:space="preserve"
   inkscape:export-filename="kbbh.svg"
   inkscape:export-xdpi="96"
   inkscape:export-ydpi="96"
   xmlns:inkscape="http://www.inkscape.org/namespaces/inkscape"
   xmlns:sodipodi="http://sodipodi.sourceforge.net/DTD/sodipodi-0.dtd"
   xmlns="http://www.w3.org/2000/svg"
   xmlns:svg="http://www.w3.org/2000/svg"><sodipodi:namedview
     id="namedview1283"
     pagecolor="#ffffff"
     bordercolor="#000000"
     borderopacity="0.25"
     inkscape:showpageshadow="2"
     inkscape:pageopacity="0.0"
     inkscape:pagecheckerboard="0"
     inkscape:deskcolor="#d1d1d1"
     inkscape:document-units="mm"
     showgrid="false" /><defs
     id="defs1278"><clipPath
       clipPathUnits="userSpaceOnUse"
       id="clipPath1301"><path
         d="M 0,792 H 612 V 0 H 0 Z"
         id="path1299" /></clipPath></defs><g
     id="g1295"
     transform="matrix(0.35277776,0,0,-0.35277778,-55.693379,176.45364)"><g
       id="g1297"
       clip-path="url(#clipPath1301)"><g
         id="g1303"
         transform="translate(183.3105,460.7529)"><path
           d="m 0,0 c 0,0 7.887,14.383 39.608,28.49 17.491,7.778 42.999,11.896 52.838,10.752 9.839,-1.143 23.686,-3.202 19.678,-4.117 C 108.115,34.209 66.209,33.065 33.413,18.423 13.694,9.62 0,0 0,0"
           style="fill:#aa8266;fill-opacity:1;fill-rule:evenodd;stroke:none"
           id="path1305" /></g><g
         id="g1307"
         transform="translate(207.2495,467.9658)"><path
           d="m 0,0 c 0,0 24.05,14.871 55.389,20.59 25.042,4.571 54.66,4.576 60.49,2.059 7.579,-3.271 21.135,-9.151 17.127,-8.922 -4.008,0.229 -31.184,5.982 -55.389,4.576 C 38.262,16.015 0,0 0,0"
           style="fill:#005ea0;fill-opacity:1;fill-rule:evenodd;stroke:none"
           id="path1309" /></g><g
         id="g1311"
         transform="translate(251.7061,477.1172)"><path
           d="M 0,0 C 0,0 30.246,7.55 57.575,5.033 78.506,3.106 90.007,0.915 96.566,-1.602 103.852,-4.397 115.15,-14.413 112.6,-14.185 110.049,-13.956 75.796,-2.059 51.745,-0.229 27.695,1.602 0,0 0,0"
           style="fill:#92aad1;fill-opacity:1;fill-rule:evenodd;stroke:none"
           id="path1313" /></g><g
         id="g1315"
         transform="translate(160.5439,423.6812)"><path
           d="M 0,0 H 1.305 C 4.125,0 6.13,-0.77 6.13,-3.52 6.13,-5.641 4.499,-7.132 2.214,-7.132 H 0 Z M 0,7.015 H 1.725 C 4.172,7.015 5.687,6.386 5.687,4.172 5.687,2.913 5.034,1.888 3.892,1.352 2.634,0.769 1.329,0.862 0,0.862 Z m -2.051,-15.01 h 3.333 c 1.608,-0.023 3.542,-0.023 4.918,0.933 1.351,0.932 2.097,2.284 2.097,3.938 0,2.704 -2.447,3.543 -4.265,3.66 2.051,0.513 3.683,1.935 3.683,4.125 0,2.401 -1.772,3.216 -5.198,3.216 h -4.568 z"
           style="fill:#005ea0;fill-opacity:1;fill-rule:evenodd;stroke:none"
           id="path1317" /></g><g
         id="g1319"
         transform="translate(174.9624,430.4634)"><path
           d="m 0,0 h 1.795 l 2.33,-0.046 c 0.7,-0.047 1.399,-0.117 2.098,-0.257 -0.023,0.233 -0.07,0.466 -0.07,0.699 0,0.233 0.047,0.443 0.07,0.699 h -8.274 v -15.872 h 8.414 c -0.023,0.233 -0.07,0.466 -0.07,0.699 0,0.233 0.047,0.443 0.07,0.7 -0.722,-0.117 -1.422,-0.187 -2.144,-0.21 C 2.82,-13.635 1.422,-13.728 0,-13.682 v 6.807 h 3.613 c 0.699,0 1.375,-0.094 2.074,-0.117 -0.023,0.256 -0.07,0.466 -0.07,0.652 0,0.21 0.047,0.42 0.07,0.607 C 4.988,-5.757 4.312,-5.85 3.613,-5.85 H 0 Z"
           style="fill:#005ea0;fill-opacity:1;fill-rule:evenodd;stroke:none"
           id="path1321" /></g><g
         id="g1323"
         transform="translate(196.7734,424.8696)"><path
           d="m 0,0 c -1.655,-0.047 -3.263,-0.116 -4.895,-0.116 -1.607,0 -3.239,0.069 -4.918,0.116 v 6.689 c -0.373,-0.023 -0.699,-0.07 -1.025,-0.07 -0.35,0 -0.699,0.047 -1.026,0.07 V -9.253 c 0.327,0.024 0.676,0.07 1.026,0.07 0.326,0 0.652,-0.046 1.025,-0.07 v 8.018 c 1.679,0.047 3.287,0.116 4.918,0.116 1.632,0 3.24,-0.069 4.895,-0.116 v -8.018 c 0.326,0.024 0.676,0.07 1.026,0.07 0.326,0 0.652,-0.046 1.025,-0.07 V 6.689 C 1.678,6.666 1.352,6.619 1.026,6.619 0.676,6.619 0.326,6.666 0,6.689 Z"
           style="fill:#005ea0;fill-opacity:1;fill-rule:evenodd;stroke:none"
           id="path1325" /></g><g
         id="g1327"
         transform="translate(210.4932,422.8887)"><path
           d="m 0,0 h -5.127 l 2.54,5.967 z M -1.748,9.02 H -2.284 L -9.556,-7.272 c 0.257,0.023 0.513,0.07 0.816,0.07 0.28,0 0.536,-0.047 0.863,-0.07 0.652,2.191 1.491,4.242 2.307,6.293 h 5.92 c 0.932,-2.121 1.771,-4.358 2.447,-6.293 0.396,0.023 0.793,0.07 1.236,0.07 0.396,0 0.769,-0.047 1.212,-0.07 z"
           style="fill:#005ea0;fill-opacity:1;fill-rule:evenodd;stroke:none"
           id="path1329" /></g><g
         id="g1331"
         transform="translate(224.6597,420.9775)"><path
           d="m 0,0 c -0.373,-0.956 -0.862,-1.865 -1.305,-2.82 h -0.21 L -4.381,4.242 -5.943,8.32 c -0.28,0.77 -0.559,1.538 -0.863,2.261 -0.419,-0.023 -0.769,-0.07 -1.142,-0.07 -0.373,0 -0.769,0.047 -1.118,0.07 1.025,-1.981 4.428,-10.465 7.085,-15.942 0.163,0.024 0.326,0.07 0.489,0.07 0.14,0 0.304,-0.046 0.467,-0.07 0.838,2.587 5.99,14.521 6.735,15.942 -0.302,-0.023 -0.582,-0.07 -0.839,-0.07 -0.303,0 -0.582,0.047 -0.862,0.07 L 3.846,10.208 2.447,6.316 Z"
           style="fill:#005ea0;fill-opacity:1;fill-rule:evenodd;stroke:none"
           id="path1333" /></g><g
         id="g1335"
         transform="translate(233.1157,415.6167)"><path
           d="M 0,0 C 0.326,0.023 0.676,0.07 1.026,0.07 1.352,0.07 1.678,0.023 2.051,0 v 15.942 c -0.373,-0.024 -0.699,-0.07 -1.025,-0.07 -0.35,0 -0.7,0.046 -1.026,0.07 z"
           style="fill:#005ea0;fill-opacity:1;fill-rule:evenodd;stroke:none"
           id="path1337" /></g><g
         id="g1339"
         transform="translate(247.2539,415.3369)"><path
           d="m 0,0 c 5.197,0 8.88,3.403 8.88,8.601 0,5.593 -4.451,7.97 -8.833,7.97 -4.825,0 -8.624,-3.216 -8.624,-8.32 C -8.577,3.263 -5.151,0 0,0 M 6.596,8.414 C 6.759,5.85 4.988,0.769 0.07,0.769 c -3.473,0 -6.363,2.471 -6.363,7.202 0,4.732 2.471,7.831 6.573,7.831 1.864,0 3.682,-0.792 4.848,-2.26 C 6.34,11.98 6.596,10.349 6.596,8.414"
           style="fill:#005ea0;fill-opacity:1;fill-rule:evenodd;stroke:none"
           id="path1341" /></g><g
         id="g1343"
         transform="translate(259.5254,415.6167)"><path
           d="M 0,0 C 0.327,0.023 0.676,0.07 1.026,0.07 1.352,0.07 1.678,0.023 2.051,0 V 7.784 H 2.937 L 4.802,5.594 7.552,2.028 C 8.041,1.375 8.507,0.722 9.02,0 9.439,0.023 9.906,0.07 10.349,0.07 10.792,0.07 11.211,0.023 11.7,0 L 11.257,0.583 10.139,1.888 5.337,7.971 c 2.354,0.42 4.779,1.725 4.779,4.428 0,2.354 -1.586,3.543 -5.175,3.543 H 0 Z M 2.051,15.08 C 3.03,15.126 4.615,15.196 5.477,15.057 7.225,14.777 8.041,13.728 8.041,12.12 8.041,10.302 6.759,9.137 5.058,8.787 3.869,8.554 2.377,8.647 2.051,8.67 Z"
           style="fill:#005ea0;fill-opacity:1;fill-rule:evenodd;stroke:none"
           id="path1345" /></g><g
         id="g1347"
         transform="translate(281.915,422.8887)"><path
           d="m 0,0 h -5.127 l 2.54,5.967 z M -1.748,9.02 H -2.284 L -9.556,-7.272 c 0.257,0.023 0.513,0.07 0.816,0.07 0.28,0 0.536,-0.047 0.863,-0.07 0.652,2.191 1.491,4.242 2.307,6.293 h 5.92 c 0.932,-2.121 1.771,-4.358 2.447,-6.293 0.396,0.023 0.793,0.07 1.235,0.07 0.397,0 0.77,-0.047 1.213,-0.07 z"
           style="fill:#005ea0;fill-opacity:1;fill-rule:evenodd;stroke:none"
           id="path1349" /></g><g
         id="g1351"
         transform="translate(291.9795,431.5586)"><path
           d="m 0,0 c -0.373,-0.023 -0.699,-0.07 -1.026,-0.07 -0.349,0 -0.699,0.047 -1.025,0.07 v -15.872 h 8.484 c -0.023,0.233 -0.07,0.466 -0.07,0.699 0,0.233 0.047,0.443 0.07,0.699 C 5.687,-14.567 4.964,-14.66 4.219,-14.684 2.82,-14.73 1.422,-14.823 0,-14.777 Z"
           style="fill:#005ea0;fill-opacity:1;fill-rule:evenodd;stroke:none"
           id="path1353" /></g><g
         id="g1355"
         transform="translate(320.5869,424.8696)"><path
           d="m 0,0 c -1.655,-0.047 -3.264,-0.116 -4.895,-0.116 -1.608,0 -3.24,0.069 -4.918,0.116 v 6.689 c -0.373,-0.023 -0.699,-0.07 -1.025,-0.07 -0.35,0 -0.699,0.047 -1.025,0.07 V -9.253 c 0.326,0.024 0.675,0.07 1.025,0.07 0.326,0 0.652,-0.046 1.025,-0.07 v 8.018 c 1.678,0.047 3.287,0.116 4.918,0.116 1.631,0 3.24,-0.069 4.895,-0.116 v -8.018 c 0.326,0.024 0.676,0.07 1.025,0.07 0.327,0 0.653,-0.046 1.026,-0.07 V 6.689 C 1.678,6.666 1.352,6.619 1.025,6.619 0.676,6.619 0.326,6.666 0,6.689 Z"
           style="fill:#005ea0;fill-opacity:1;fill-rule:evenodd;stroke:none"
           id="path1357" /></g><g
         id="g1359"
         transform="translate(329.2021,430.4634)"><path
           d="M 0,0 H 1.795 L 4.126,-0.046 C 4.825,-0.093 5.524,-0.163 6.224,-0.303 6.2,-0.07 6.153,0.163 6.153,0.396 c 0,0.233 0.047,0.443 0.071,0.699 h -8.275 v -15.872 h 8.414 c -0.023,0.233 -0.07,0.466 -0.07,0.699 0,0.233 0.047,0.443 0.07,0.7 -0.722,-0.117 -1.422,-0.187 -2.144,-0.21 C 2.82,-13.635 1.422,-13.728 0,-13.682 v 6.807 h 3.613 c 0.699,0 1.375,-0.094 2.074,-0.117 -0.023,0.256 -0.07,0.466 -0.07,0.652 0,0.21 0.047,0.42 0.07,0.607 C 4.988,-5.757 4.312,-5.85 3.613,-5.85 H 0 Z"
           style="fill:#005ea0;fill-opacity:1;fill-rule:evenodd;stroke:none"
           id="path1361" /></g><g
         id="g1363"
         transform="translate(346.9814,422.8887)"><path
           d="m 0,0 h -5.128 l 2.541,5.967 z M -1.748,9.02 H -2.284 L -9.556,-7.272 c 0.256,0.023 0.512,0.07 0.816,0.07 0.279,0 0.536,-0.047 0.862,-0.07 0.652,2.191 1.491,4.242 2.307,6.293 H 0.35 c 0.931,-2.121 1.771,-4.358 2.447,-6.293 0.396,0.023 0.792,0.07 1.235,0.07 0.396,0 0.769,-0.047 1.212,-0.07 z"
           style="fill:#005ea0;fill-opacity:1;fill-rule:evenodd;stroke:none"
           id="path1365" /></g><g
         id="g1367"
         transform="translate(357.0449,431.5586)"><path
           d="m 0,0 c -0.373,-0.023 -0.698,-0.07 -1.025,-0.07 -0.35,0 -0.7,0.047 -1.026,0.07 v -15.872 h 8.485 c -0.024,0.233 -0.071,0.466 -0.071,0.699 0,0.233 0.047,0.443 0.071,0.699 C 5.687,-14.567 4.965,-14.66 4.219,-14.684 2.82,-14.73 1.422,-14.823 0,-14.777 Z"
           style="fill:#005ea0;fill-opacity:1;fill-rule:evenodd;stroke:none"
           id="path1369" /></g><g
         id="g1371"
         transform="translate(370.6523,430.4399)"><path
           d="M 0,0 C 2.074,0 3.706,-0.14 4.871,-0.279 4.848,-0.046 4.802,0.187 4.802,0.42 c 0,0.233 0.046,0.442 0.069,0.699 H -7.155 c 0.023,-0.257 0.069,-0.466 0.069,-0.699 0,-0.233 -0.046,-0.466 -0.069,-0.699 C -5.827,-0.14 -4.405,0 -2.051,0 v -14.87 c 0.326,0.023 0.676,0.07 1.026,0.07 0.326,0 0.652,-0.047 1.025,-0.07 z"
           style="fill:#005ea0;fill-opacity:1;fill-rule:evenodd;stroke:none"
           id="path1373" /></g><g
         id="g1375"
         transform="translate(390.2686,424.8696)"><path
           d="m 0,0 c -1.655,-0.047 -3.263,-0.116 -4.895,-0.116 -1.608,0 -3.24,0.069 -4.918,0.116 v 6.689 c -0.373,-0.023 -0.699,-0.07 -1.025,-0.07 -0.35,0 -0.699,0.047 -1.025,0.07 V -9.253 c 0.326,0.024 0.675,0.07 1.025,0.07 0.326,0 0.652,-0.046 1.025,-0.07 v 8.018 c 1.678,0.047 3.287,0.116 4.918,0.116 1.632,0 3.24,-0.069 4.895,-0.116 v -8.018 c 0.326,0.024 0.676,0.07 1.025,0.07 0.327,0 0.653,-0.046 1.026,-0.07 V 6.689 C 1.678,6.666 1.352,6.619 1.025,6.619 0.676,6.619 0.326,6.666 0,6.689 Z"
           style="fill:#005ea0;fill-opacity:1;fill-rule:evenodd;stroke:none"
           id="path1377" /></g><g
         id="g1379"
         transform="translate(173.5425,456.0518)"><path
           d="m 0,0 c -0.427,-0.031 -0.823,-0.091 -1.189,-0.091 -0.427,0 -0.823,0.06 -1.219,0.091 l -7.499,-7.742 c -0.427,-0.427 -1.067,-1.068 -1.616,-1.494 -0.304,-0.244 -0.731,-0.366 -0.762,-0.183 V 0 c -0.487,-0.031 -0.914,-0.091 -1.341,-0.091 -0.457,0 -0.915,0.06 -1.341,0.091 v -20.85 c 0.426,0.031 0.884,0.092 1.341,0.092 0.427,0 0.854,-0.061 1.341,-0.092 v 10.639 c 0,0.122 0.366,0.03 0.518,-0.092 l 6.646,-7.773 c 0.762,-0.883 1.433,-1.798 2.103,-2.774 0.549,0.031 1.128,0.092 1.707,0.092 0.518,0 1.067,-0.061 1.676,-0.092 v 0.153 l -2.469,3.048 c -2.438,2.835 -4.968,5.578 -7.407,8.382 l 2.591,2.622 z"
           style="fill:#005ea0;fill-opacity:1;fill-rule:evenodd;stroke:none"
           id="path1381" /></g><g
         id="g1383"
         transform="translate(180.2373,456.0518)"><path
           d="m 0,0 c -0.488,-0.031 -0.915,-0.091 -1.341,-0.091 -0.457,0 -0.915,0.06 -1.342,0.091 V -20.758 H 8.413 c -0.031,0.304 -0.092,0.61 -0.092,0.914 0,0.305 0.061,0.579 0.092,0.915 -0.975,-0.122 -1.92,-0.244 -2.896,-0.275 C 3.688,-19.265 1.859,-19.387 0,-19.326 Z"
           style="fill:#005ea0;fill-opacity:1;fill-rule:evenodd;stroke:none"
           id="path1385" /></g><g
         id="g1387"
         transform="translate(203.4888,444.7129)"><path
           d="m 0,0 h -6.706 l 3.323,7.803 z m -2.286,11.796 h -0.701 l -9.511,-21.307 c 0.335,0.031 0.671,0.092 1.067,0.092 0.366,0 0.702,-0.061 1.128,-0.092 0.854,2.865 1.951,5.548 3.018,8.23 h 7.743 c 1.219,-2.774 2.316,-5.7 3.2,-8.23 0.518,0.031 1.037,0.092 1.615,0.092 0.519,0 1.007,-0.061 1.586,-0.092 z"
           style="fill:#005ea0;fill-opacity:1;fill-rule:evenodd;stroke:none"
           id="path1389" /></g><g
         id="g1391"
         transform="translate(233.7212,456.0518)"><path
           d="m 0,0 c -3.079,-5.456 -5.883,-10.76 -8.778,-15.973 -3.263,5.396 -6.188,11.126 -8.627,15.973 h -0.793 c -0.304,-3.2 -2.133,-15.942 -2.926,-20.85 0.366,0.031 0.701,0.092 1.097,0.092 0.336,0 0.671,-0.061 1.068,-0.092 0,3.749 0.822,9.785 1.493,15.729 2.072,-3.963 4.207,-7.925 6.157,-11.949 l 1.677,-3.445 h 0.335 c 1.829,4.207 4.451,9.084 7.986,15.394 0.427,-3.018 1.037,-9.602 1.555,-15.729 0.457,0.031 0.945,0.092 1.433,0.092 0.457,0 0.884,-0.061 1.433,-0.092 C 2.286,-15.027 1.433,-7.529 0.64,0 Z"
           style="fill:#005ea0;fill-opacity:1;fill-rule:evenodd;stroke:none"
           id="path1393" /></g><g
         id="g1395"
         transform="translate(251.7568,444.7129)"><path
           d="m 0,0 h -6.707 l 3.324,7.803 z m -2.286,11.796 h -0.701 l -9.511,-21.307 c 0.335,0.031 0.671,0.092 1.067,0.092 0.366,0 0.702,-0.061 1.128,-0.092 0.853,2.865 1.95,5.548 3.017,8.23 h 7.743 c 1.22,-2.774 2.317,-5.7 3.201,-8.23 0.518,0.031 1.036,0.092 1.615,0.092 0.519,0 1.006,-0.061 1.585,-0.092 z"
           style="fill:#005ea0;fill-opacity:1;fill-rule:evenodd;stroke:none"
           id="path1397" /></g><g
         id="g1399"
         transform="translate(267.0532,454.5889)"><path
           d="M 0,0 C 2.713,0 4.847,-0.183 6.371,-0.366 6.34,-0.061 6.28,0.244 6.28,0.549 c 0,0.305 0.06,0.579 0.091,0.914 H -9.358 c 0.03,-0.335 0.091,-0.609 0.091,-0.914 0,-0.305 -0.061,-0.61 -0.091,-0.915 C -7.621,-0.183 -5.761,0 -2.683,0 v -19.448 c 0.428,0.031 0.885,0.092 1.342,0.092 0.426,0 0.854,-0.061 1.341,-0.092 z"
           style="fill:#005ea0;fill-opacity:1;fill-rule:evenodd;stroke:none"
           id="path1401" /></g><g
         id="g1403"
         transform="translate(292.708,447.3032)"><path
           d="m 0,0 c -2.164,-0.061 -4.268,-0.152 -6.401,-0.152 -2.103,0 -4.237,0.091 -6.432,0.152 v 8.749 c -0.488,-0.031 -0.915,-0.092 -1.341,-0.092 -0.457,0 -0.914,0.061 -1.342,0.092 v -20.851 c 0.428,0.031 0.885,0.092 1.342,0.092 0.426,0 0.853,-0.061 1.341,-0.092 v 10.487 c 2.195,0.061 4.298,0.152 6.432,0.152 2.133,0 4.237,-0.091 6.401,-0.152 v -10.487 c 0.427,0.031 0.884,0.092 1.341,0.092 0.427,0 0.854,-0.061 1.342,-0.092 V 8.749 C 2.195,8.718 1.768,8.657 1.341,8.657 0.884,8.657 0.427,8.718 0,8.749 Z"
           style="fill:#005ea0;fill-opacity:1;fill-rule:evenodd;stroke:none"
           id="path1405" /></g><g
         id="g1407"
         transform="translate(313.0479,445.749)"><path
           d="m 0,0 h 1.706 c 3.689,0 6.311,-1.006 6.311,-4.603 0,-2.774 -2.134,-4.725 -5.121,-4.725 H 0 Z m 0,9.175 h 2.256 c 3.2,0 5.181,-0.823 5.181,-3.719 C 7.437,3.81 6.584,2.469 5.091,1.768 3.444,1.006 1.737,1.128 0,1.128 Z m -2.683,-19.631 h 4.36 c 2.102,-0.03 4.633,-0.03 6.431,1.22 1.768,1.219 2.744,2.987 2.744,5.151 0,3.536 -3.202,4.633 -5.579,4.786 2.682,0.671 4.817,2.53 4.817,5.395 0,3.14 -2.318,4.207 -6.798,4.207 h -5.975 z"
           style="fill:#005ea0;fill-opacity:1;fill-rule:evenodd;stroke:none"
           id="path1409" /></g><g
         id="g1411"
         transform="translate(338.8857,444.7129)"><path
           d="m 0,0 h -6.706 l 3.322,7.803 z m -2.286,11.796 h -0.701 l -9.511,-21.307 c 0.335,0.031 0.671,0.092 1.067,0.092 0.366,0 0.702,-0.061 1.127,-0.092 0.854,2.865 1.951,5.548 3.019,8.23 h 7.742 c 1.22,-2.774 2.316,-5.7 3.201,-8.23 0.518,0.031 1.036,0.092 1.615,0.092 0.519,0 1.006,-0.061 1.585,-0.092 z"
           style="fill:#005ea0;fill-opacity:1;fill-rule:evenodd;stroke:none"
           id="path1413" /></g><g
         id="g1415"
         transform="translate(348.6035,439.3174)"><path
           d="m 0,0 c -0.122,-0.915 -0.274,-1.829 -0.579,-2.713 1.036,-1.128 3.475,-1.768 4.969,-1.768 4.145,0 7.529,2.591 7.529,6.95 0,6.492 -9.603,4.237 -9.603,9.845 0,2.165 1.739,3.567 3.841,3.567 1.799,0 3.14,-1.006 3.781,-2.652 h 0.304 c 0.244,0.854 0.457,1.707 0.823,2.5 -1.127,1.005 -2.896,1.463 -4.359,1.463 -3.658,0 -6.768,-1.921 -6.768,-5.853 0,-6.889 9.541,-4.389 9.541,-10.059 0,-2.408 -1.767,-4.45 -4.236,-4.45 -2.378,0 -3.749,1.219 -4.938,3.17 z"
           style="fill:#005ea0;fill-opacity:1;fill-rule:evenodd;stroke:none"
           id="path1417" /></g><g
         id="g1419"
         transform="translate(365.21,435.2017)"><path
           d="M 0,0 C 0.427,0.031 0.884,0.092 1.342,0.092 1.769,0.092 2.195,0.031 2.683,0 V 20.85 C 2.195,20.819 1.769,20.759 1.342,20.759 0.884,20.759 0.427,20.819 0,20.85 Z"
           style="fill:#005ea0;fill-opacity:1;fill-rule:evenodd;stroke:none"
           id="path1421" /></g><g
         id="g1423"
         transform="translate(391.9307,456.0518)"><path
           d="m 0,0 c -0.305,-0.031 -0.579,-0.091 -0.854,-0.091 -0.304,0 -0.579,0.06 -0.853,0.091 V -15.698 H -2.012 L -16.49,0 h -1.19 v -20.85 c 0.275,0.031 0.549,0.092 0.854,0.092 0.274,0 0.549,-0.061 0.853,-0.092 v 16.43 h 0.305 l 13.169,-14.57 c 0.64,-0.701 1.25,-1.433 1.585,-1.86 H 0 Z"
           style="fill:#005ea0;fill-opacity:1;fill-rule:evenodd;stroke:none"
           id="path1425" /></g><path
         d="M 157.871,410.918 H 328.324 V 395.746 H 157.871 Z"
         style="fill:#aa8266;fill-opacity:1;fill-rule:evenodd;stroke:none"
         id="path1427" /><g
         id="g1429"
         transform="translate(169.6641,400.0957)"><path
           d="M 0,0 V 3.156 H -2.163 V 2.474 h 1.325 V 0.516 c -0.195,-0.097 -0.575,-0.175 -1.13,-0.175 -1.539,0 -2.533,0.984 -2.533,2.65 0,1.646 1.043,2.64 2.64,2.64 0.663,0 1.101,-0.117 1.452,-0.283 l 0.214,0.692 c -0.283,0.136 -0.887,0.302 -1.646,0.302 -2.202,0 -3.556,-1.432 -3.556,-3.39 0,-1.023 0.351,-1.9 0.916,-2.446 0.643,-0.613 1.461,-0.866 2.455,-0.866 0.886,0 1.646,0.214 2.026,0.36"
           style="fill:#ffffff;fill-opacity:1;fill-rule:evenodd;stroke:none"
           id="path1431" /></g><g
         id="g1433"
         transform="translate(174.3765,404.5381)"><path
           d="M 0,0 C 0,-0.75 -0.575,-1.247 -1.481,-1.247 H -2.348 V 1.14 C -2.202,1.179 -1.919,1.218 -1.51,1.218 -0.614,1.218 0,0.848 0,0 m 1.081,-4.735 c -0.126,0.254 -0.282,0.887 -0.497,1.802 -0.165,0.683 -0.467,1.15 -0.964,1.326 v 0.029 c 0.682,0.234 1.237,0.808 1.237,1.665 0,0.517 -0.194,0.965 -0.516,1.247 -0.409,0.371 -1.004,0.546 -1.909,0.546 -0.575,0 -1.199,-0.058 -1.627,-0.146 v -6.469 h 0.847 v 2.845 h 0.799 c 0.77,0 1.13,-0.37 1.325,-1.277 0.175,-0.818 0.321,-1.383 0.429,-1.568 z"
           style="fill:#ffffff;fill-opacity:1;fill-rule:evenodd;stroke:none"
           id="path1435" /></g><g
         id="g1437"
         transform="translate(181.3599,403.1157)"><path
           d="m 0,0 c 0,-1.491 -0.76,-2.728 -2.114,-2.728 -1.335,0 -2.094,1.276 -2.094,2.66 0,1.422 0.701,2.737 2.113,2.737 C -0.682,2.669 0,1.305 0,0 m 0.906,0.039 c 0,1.948 -1.159,3.322 -2.962,3.322 -1.753,0 -3.039,-1.364 -3.039,-3.449 0,-1.987 1.208,-3.331 2.961,-3.331 1.666,0 3.04,1.208 3.04,3.458"
           style="fill:#ffffff;fill-opacity:1;fill-rule:evenodd;stroke:none"
           id="path1439" /></g><g
         id="g1441"
         transform="translate(190.9146,406.3696)"><path
           d="m 0,0 h -0.867 l -0.867,-3.313 c -0.215,-0.818 -0.39,-1.548 -0.526,-2.27 h -0.02 c -0.097,0.692 -0.273,1.462 -0.458,2.251 L -3.537,0 H -4.423 L -5.3,-3.313 C -5.524,-4.16 -5.729,-4.939 -5.836,-5.592 h -0.019 c -0.117,0.633 -0.292,1.442 -0.487,2.27 L -7.122,0 h -0.896 l 1.666,-6.566 h 0.887 l 0.935,3.419 c 0.234,0.848 0.399,1.481 0.506,2.144 h 0.02 c 0.087,-0.663 0.224,-1.306 0.428,-2.154 l 0.828,-3.409 h 0.887 z"
           style="fill:#ffffff;fill-opacity:1;fill-rule:evenodd;stroke:none"
           id="path1443" /></g><g
         id="g1445"
         transform="translate(195.9663,405.6484)"><path
           d="M 0,0 V 0.721 H -4.861 V 0 h 1.997 v -5.845 h 0.857 V 0 Z"
           style="fill:#ffffff;fill-opacity:1;fill-rule:evenodd;stroke:none"
           id="path1447" /></g><g
         id="g1449"
         transform="translate(201.8101,399.8032)"><path
           d="M 0,0 V 6.566 H -0.857 V 3.819 H -4.033 V 6.566 H -4.891 V 0 h 0.858 v 3.079 h 3.176 V 0 Z"
           style="fill:#ffffff;fill-opacity:1;fill-rule:evenodd;stroke:none"
           id="path1451" /></g><g
         id="g1453"
         transform="translate(208.7031,403.0571)"><path
           d="M 0,0 C 0,0.575 -0.458,1.023 -1.023,1.023 -1.588,1.023 -2.046,0.565 -2.046,0 -2.036,-0.575 -1.588,-1.023 -1.023,-1.023 -0.458,-1.023 0,-0.565 0,0"
           style="fill:#ffffff;fill-opacity:1;fill-rule:evenodd;stroke:none"
           id="path1455" /></g><g
         id="g1457"
         transform="translate(220.9062,406.3696)"><path
           d="m 0,0 h -0.867 l -0.867,-3.313 c -0.214,-0.818 -0.39,-1.548 -0.526,-2.27 h -0.02 c -0.097,0.692 -0.272,1.462 -0.458,2.251 L -3.537,0 H -4.423 L -5.3,-3.313 C -5.524,-4.16 -5.729,-4.939 -5.835,-5.592 h -0.02 c -0.117,0.633 -0.292,1.442 -0.487,2.27 L -7.122,0 h -0.896 l 1.666,-6.566 h 0.887 l 0.935,3.419 c 0.234,0.848 0.399,1.481 0.507,2.144 h 0.019 c 0.087,-0.663 0.224,-1.306 0.429,-2.154 l 0.828,-3.409 h 0.886 z"
           style="fill:#ffffff;fill-opacity:1;fill-rule:evenodd;stroke:none"
           id="path1459" /></g><g
         id="g1461"
         transform="translate(225.5396,399.8032)"><path
           d="m 0,0 v 0.711 h -2.845 v 2.368 h 2.543 V 3.78 h -2.543 v 2.075 h 2.699 V 6.566 H -3.702 V 0 Z"
           style="fill:#ffffff;fill-opacity:1;fill-rule:evenodd;stroke:none"
           id="path1463" /></g><g
         id="g1465"
         transform="translate(230.5244,399.8032)"><path
           d="M 0,0 V 0.711 H -2.806 V 6.566 H -3.663 V 0 Z"
           style="fill:#ffffff;fill-opacity:1;fill-rule:evenodd;stroke:none"
           id="path1467" /></g><g
         id="g1469"
         transform="translate(235.3535,399.8032)"><path
           d="M 0,0 V 0.711 H -2.806 V 6.566 H -3.663 V 0 Z"
           style="fill:#ffffff;fill-opacity:1;fill-rule:evenodd;stroke:none"
           id="path1471" /></g><g
         id="g1473"
         transform="translate(241.4585,399.8032)"><path
           d="M 0,0 V 6.566 H -0.799 V 3.81 c 0,-1.014 0.02,-1.813 0.098,-2.689 L -0.73,1.111 C -1.033,1.792 -1.413,2.475 -1.9,3.244 L -3.994,6.566 H -4.929 V 0 h 0.799 v 2.806 c 0,1.091 -0.011,1.88 -0.059,2.708 l 0.029,0.01 C -3.838,4.813 -3.4,4.062 -2.942,3.332 L -0.857,0 Z"
           style="fill:#ffffff;fill-opacity:1;fill-rule:evenodd;stroke:none"
           id="path1475" /></g><g
         id="g1477"
         transform="translate(246.7646,399.8032)"><path
           d="m 0,0 v 0.711 h -2.845 v 2.368 h 2.543 V 3.78 h -2.543 v 2.075 h 2.699 V 6.566 H -3.702 V 0 Z"
           style="fill:#ffffff;fill-opacity:1;fill-rule:evenodd;stroke:none"
           id="path1479" /></g><g
         id="g1481"
         transform="translate(251.7305,401.5957)"><path
           d="m 0,0 c 0,0.965 -0.555,1.491 -1.666,1.929 -0.906,0.351 -1.306,0.653 -1.306,1.267 0,0.448 0.342,0.984 1.238,0.984 0.594,0 1.032,-0.186 1.237,-0.312 l 0.234,0.692 c -0.282,0.165 -0.779,0.321 -1.442,0.321 -1.276,0 -2.124,-0.76 -2.124,-1.783 0,-0.915 0.662,-1.481 1.734,-1.87 0.887,-0.332 1.238,-0.692 1.238,-1.296 0,-0.672 -0.507,-1.12 -1.374,-1.12 -0.584,0 -1.13,0.185 -1.51,0.428 L -3.965,-1.471 C -3.614,-1.705 -2.923,-1.899 -2.29,-1.899 -0.741,-1.899 0,-1.013 0,0"
           style="fill:#ffffff;fill-opacity:1;fill-rule:evenodd;stroke:none"
           id="path1483" /></g><g
         id="g1485"
         transform="translate(256.7642,401.5957)"><path
           d="m 0,0 c 0,0.965 -0.556,1.491 -1.666,1.929 -0.906,0.351 -1.306,0.653 -1.306,1.267 0,0.448 0.342,0.984 1.238,0.984 0.594,0 1.032,-0.186 1.237,-0.312 l 0.234,0.692 c -0.283,0.165 -0.78,0.321 -1.442,0.321 -1.276,0 -2.124,-0.76 -2.124,-1.783 0,-0.915 0.662,-1.481 1.734,-1.87 0.887,-0.332 1.238,-0.692 1.238,-1.296 0,-0.672 -0.507,-1.12 -1.374,-1.12 -0.585,0 -1.13,0.185 -1.51,0.428 l -0.224,-0.711 c 0.35,-0.234 1.042,-0.428 1.675,-0.428 C -0.741,-1.899 0,-1.013 0,0"
           style="fill:#ffffff;fill-opacity:1;fill-rule:evenodd;stroke:none"
           id="path1487" /></g><g
         id="g1489"
         transform="translate(263.3535,403.0571)"><path
           d="M 0,0 C 0,0.575 -0.458,1.023 -1.023,1.023 -1.588,1.023 -2.046,0.565 -2.046,0 -2.036,-0.575 -1.588,-1.023 -1.023,-1.023 -0.458,-1.023 0,-0.565 0,0"
           style="fill:#ffffff;fill-opacity:1;fill-rule:evenodd;stroke:none"
           id="path1491" /></g><g
         id="g1493"
         transform="translate(272.8096,406.1846)"><path
           d="m 0,0 c -0.224,0.117 -0.75,0.292 -1.559,0.292 -2.036,0 -3.429,-1.383 -3.429,-3.449 0,-2.162 1.384,-3.331 3.235,-3.331 0.798,0 1.432,0.155 1.733,0.311 l -0.165,0.682 c -0.341,-0.165 -0.867,-0.273 -1.393,-0.273 -1.588,0 -2.514,1.023 -2.514,2.641 0,1.724 1.023,2.708 2.563,2.708 0.545,0 1.003,-0.117 1.315,-0.273 z"
           style="fill:#ffffff;fill-opacity:1;fill-rule:evenodd;stroke:none"
           id="path1495" /></g><g
         id="g1497"
         transform="translate(278.7993,403.1157)"><path
           d="m 0,0 c 0,-1.491 -0.76,-2.728 -2.114,-2.728 -1.335,0 -2.094,1.276 -2.094,2.66 0,1.422 0.701,2.737 2.113,2.737 C -0.682,2.669 0,1.305 0,0 m 0.906,0.039 c 0,1.948 -1.159,3.322 -2.962,3.322 -1.753,0 -3.039,-1.364 -3.039,-3.449 0,-1.987 1.208,-3.331 2.961,-3.331 1.666,0 3.04,1.208 3.04,3.458"
           style="fill:#ffffff;fill-opacity:1;fill-rule:evenodd;stroke:none"
           id="path1499" /></g><g
         id="g1501"
         transform="translate(287.5356,399.8032)"><path
           d="M 0,0 -0.41,6.566 H -1.491 L -2.66,3.391 C -2.962,2.563 -3.186,1.841 -3.361,1.179 h -0.02 c -0.175,0.682 -0.38,1.403 -0.662,2.212 L -5.164,6.566 H -6.245 L -6.703,0 h 0.809 l 0.175,2.815 c 0.058,0.995 0.107,2.085 0.127,2.904 h 0.019 c 0.185,-0.78 0.429,-1.617 0.75,-2.553 l 1.072,-3.127 h 0.643 l 1.159,3.186 c 0.331,0.906 0.595,1.734 0.828,2.494 h 0.02 c 0,-0.809 0.059,-1.92 0.107,-2.835 L -0.838,0 Z"
           style="fill:#ffffff;fill-opacity:1;fill-rule:evenodd;stroke:none"
           id="path1503" /></g><g
         id="g1505"
         transform="translate(295.5981,399.8032)"><path
           d="M 0,0 -0.409,6.566 H -1.49 L -2.66,3.391 C -2.961,2.563 -3.186,1.841 -3.361,1.179 H -3.38 c -0.176,0.682 -0.38,1.403 -0.663,2.212 l -1.12,3.175 H -6.245 L -6.703,0 h 0.809 l 0.175,2.815 C -5.66,3.81 -5.611,4.9 -5.592,5.719 h 0.02 c 0.185,-0.78 0.428,-1.617 0.75,-2.553 L -3.75,0.039 h 0.643 l 1.159,3.186 c 0.331,0.906 0.594,1.734 0.828,2.494 h 0.019 c 0,-0.809 0.059,-1.92 0.107,-2.835 L -0.837,0 Z"
           style="fill:#ffffff;fill-opacity:1;fill-rule:evenodd;stroke:none"
           id="path1507" /></g><g
         id="g1509"
         transform="translate(301.9663,402.5312)"><path
           d="m 0,0 v 3.838 h -0.857 v -3.897 c 0,-1.441 -0.634,-2.085 -1.598,-2.085 -0.877,0 -1.53,0.624 -1.53,2.085 v 3.897 h -0.857 v -3.867 c 0,-2.046 1.013,-2.806 2.358,-2.806 C -1.062,-2.835 0,-2.017 0,0"
           style="fill:#ffffff;fill-opacity:1;fill-rule:evenodd;stroke:none"
           id="path1511" /></g><g
         id="g1513"
         transform="translate(308.5977,399.8032)"><path
           d="M 0,0 V 6.566 H -0.799 V 3.81 c 0,-1.014 0.02,-1.813 0.098,-2.689 L -0.73,1.111 C -1.033,1.792 -1.413,2.475 -1.9,3.244 L -3.995,6.566 H -4.93 V 0 h 0.799 v 2.806 c 0,1.091 -0.01,1.88 -0.058,2.708 l 0.029,0.01 C -3.838,4.813 -3.4,4.062 -2.942,3.332 L -0.857,0 Z"
           style="fill:#ffffff;fill-opacity:1;fill-rule:evenodd;stroke:none"
           id="path1515" /></g><path
         d="m 311.117,406.37 h -0.857 v -6.566 h 0.857 z"
         style="fill:#ffffff;fill-opacity:1;fill-rule:evenodd;stroke:none"
         id="path1517" /><g
         id="g1519"
         transform="translate(316.9619,405.6484)"><path
           d="M 0,0 V 0.721 H -4.861 V 0 h 1.997 v -5.845 h 0.857 V 0 Z"
           style="fill:#ffffff;fill-opacity:1;fill-rule:evenodd;stroke:none"
           id="path1521" /></g><g
         id="g1523"
         transform="translate(322.3281,406.3696)"><path
           d="m 0,0 h -0.955 l -0.944,-1.812 c -0.254,-0.497 -0.488,-0.926 -0.664,-1.355 h -0.019 c -0.204,0.459 -0.399,0.858 -0.652,1.355 L -4.16,0 h -0.974 l 2.084,-3.78 v -2.786 h 0.858 v 2.795 z"
           style="fill:#ffffff;fill-opacity:1;fill-rule:evenodd;stroke:none"
           id="path1525" /></g><g
         id="g1527"
         transform="translate(338.1729,410.8818)"><path
           d="M 0,0 H -5.793 V -15.086 H 0 v 6.398 h 0.043 l 3.761,-6.398 h 6.917 L 5.166,-7.068 10.245,0 H 3.652 L 0.043,-5.922 H 0 Z"
           style="fill:#005ea0;fill-opacity:1;fill-rule:evenodd;stroke:none"
           id="path1529" /></g><g
         id="g1531"
         transform="translate(354.0059,408.0288)"><path
           d="m 0,0 h 1.578 c 1.037,0 1.988,-0.346 1.988,-1.47 0,-1.145 -1.102,-1.448 -2.118,-1.448 H 0 Z m 0,-6.03 h 1.556 c 1.081,0 2.162,-0.238 2.162,-1.535 0,-1.167 -1.146,-1.556 -2.205,-1.556 H 0 Z m -5.447,-6.203 h 8.754 c 3.134,0 6.203,0.389 6.203,4.192 0,1.514 -1.296,3.156 -3.393,3.437 v 0.043 c 2.01,0.519 3.112,1.622 3.112,3.697 0,2.874 -2.572,3.717 -5.187,3.717 h -9.489 z"
           style="fill:#005ea0;fill-opacity:1;fill-rule:evenodd;stroke:none"
           id="path1533" /></g><g
         id="g1535"
         transform="translate(386.7119,405.6729)"><path
           d="M 0,0 H -3.869 V 5.209 H -9.661 V -9.877 h 5.792 v 5.425 H 0 V -9.877 H 5.793 V 5.209 H 0 Z"
           style="fill:#005ea0;fill-opacity:1;fill-rule:evenodd;stroke:none"
           id="path1537" /></g><g
         id="g1539"
         transform="translate(392.5039,405.6665)"><path
           d="M 0,0 V 5.209 H -5.792 V -9.877 H 0 v 5.425 z"
           style="fill:#005ea0;fill-opacity:1;fill-rule:evenodd;stroke:none"
           id="path1541" /></g><g
         id="g1543"
         transform="translate(367.043,405.1108)"><path
           d="m 0,0 h 1.448 c 1.016,0 2.118,0.303 2.118,1.448 0,1.124 -0.951,1.47 -1.988,1.47 H 0 Z m 0,-6.203 h 1.513 c 1.059,0 2.205,0.389 2.205,1.556 0,1.297 -1.081,1.535 -2.161,1.535 H 0 Z M -5.086,5.766 h 9.128 c 0,0 5.141,0.288 5.187,-3.712 0.042,-3.488 -3.247,-3.725 -3.247,-3.725 0,0 3.59,-0.576 3.55,-3.43 -0.061,-4.353 -4.789,-4.18 -4.789,-4.18 l -9.569,0.029 c 0,0 2.154,0.736 2.142,4.129 -0.009,2.673 -2.097,3.489 -2.097,3.489 0,0 1.7,0.828 1.857,3.45 0.173,2.883 -2.162,3.95 -2.162,3.95"
           style="fill:#005ea0;fill-opacity:1;fill-rule:evenodd;stroke:none"
           id="path1545" /></g></g></g></svg>
