<?xml version="1.0" encoding="UTF-8" standalone="no"?>
<!-- Created with Inkscape (http://www.inkscape.org/) -->

<svg
   width="63.981052mm"
   height="13.909843mm"
   viewBox="0 0 63.98105 13.909843"
   version="1.1"
   id="svg1281"
   xml:space="preserve"
   inkscape:export-filename="kbbhCleaned.svg"
   inkscape:export-xdpi="96"
   inkscape:export-ydpi="96"
   sodipodi:docname="kbbhArches.svg"
   inkscape:version="1.2 (dc2aedaf03, 2022-05-15)"
   xmlns:inkscape="http://www.inkscape.org/namespaces/inkscape"
   xmlns:sodipodi="http://sodipodi.sourceforge.net/DTD/sodipodi-0.dtd"
   xmlns="http://www.w3.org/2000/svg"
   xmlns:svg="http://www.w3.org/2000/svg"><sodipodi:namedview
     id="namedview1283"
     pagecolor="#ffffff"
     bordercolor="#000000"
     borderopacity="0.25"
     inkscape:showpageshadow="2"
     inkscape:pageopacity="0.0"
     inkscape:pagecheckerboard="0"
     inkscape:deskcolor="#d1d1d1"
     inkscape:document-units="mm"
     showgrid="false"
     inkscape:zoom="3.3293632"
     inkscape:cx="122.2456"
     inkscape:cy="68.781923"
     inkscape:window-width="1920"
     inkscape:window-height="1057"
     inkscape:window-x="1912"
     inkscape:window-y="-8"
     inkscape:window-maximized="1"
     inkscape:current-layer="svg1281" /><defs
     id="defs1278"><clipPath
       clipPathUnits="userSpaceOnUse"
       id="clipPath2924"><path
         d="m -367.043,386.8892 h 612 v -792 h -612 z"
         id="path2926"
         style="stroke-width:0.999998" /></clipPath><clipPath
       clipPathUnits="userSpaceOnUse"
       id="clipPath2928"><path
         d="m -392.5039,386.3335 h 612 v -792 h -612 z"
         id="path2930"
         style="stroke-width:0.999998" /></clipPath><clipPath
       clipPathUnits="userSpaceOnUse"
       id="clipPath2932"><path
         d="m -386.7119,386.3271 h 612 v -792 h -612 z"
         id="path2934"
         style="stroke-width:0.999998" /></clipPath><clipPath
       clipPathUnits="userSpaceOnUse"
       id="clipPath2936"><path
         d="m -354.0059,383.9712 h 612 v -792 h -612 z"
         id="path2938"
         style="stroke-width:0.999998" /></clipPath><clipPath
       clipPathUnits="userSpaceOnUse"
       id="clipPath2940"><path
         d="m -338.1729,381.1182 h 612 v -792 h -612 z"
         id="path2942"
         style="stroke-width:0.999998" /></clipPath><clipPath
       clipPathUnits="userSpaceOnUse"
       id="clipPath2944"><path
         d="m -322.3281,385.6304 h 612 v -792 h -612 z"
         id="path2946"
         style="stroke-width:0.999998" /></clipPath><clipPath
       clipPathUnits="userSpaceOnUse"
       id="clipPath2948"><path
         d="m -316.9619,386.3516 h 612 v -792 h -612 z"
         id="path2950"
         style="stroke-width:0.999998" /></clipPath><clipPath
       clipPathUnits="userSpaceOnUse"
       id="clipPath2952"><path
         d="m -308.5977,392.1968 h 612 v -792 h -612 z"
         id="path2954"
         style="stroke-width:0.999998" /></clipPath><clipPath
       clipPathUnits="userSpaceOnUse"
       id="clipPath2956"><path
         d="m -301.9663,389.4688 h 612 v -792 h -612 z"
         id="path2958"
         style="stroke-width:0.999998" /></clipPath><clipPath
       clipPathUnits="userSpaceOnUse"
       id="clipPath2960"><path
         d="m -295.5981,392.1968 h 612 v -792 h -612 z"
         id="path2962"
         style="stroke-width:0.999998" /></clipPath><clipPath
       clipPathUnits="userSpaceOnUse"
       id="clipPath2964"><path
         d="m -287.5356,392.1968 h 612 v -792 h -612 z"
         id="path2966"
         style="stroke-width:0.999998" /></clipPath><clipPath
       clipPathUnits="userSpaceOnUse"
       id="clipPath2968"><path
         d="m -278.7993,388.8843 h 612 v -792 h -612 z"
         id="path2970"
         style="stroke-width:0.999998" /></clipPath><clipPath
       clipPathUnits="userSpaceOnUse"
       id="clipPath2972"><path
         d="m -272.8096,385.8154 h 612 v -792 h -612 z"
         id="path2974"
         style="stroke-width:0.999998" /></clipPath><clipPath
       clipPathUnits="userSpaceOnUse"
       id="clipPath2976"><path
         d="m -263.3535,388.9429 h 612 v -792 h -612 z"
         id="path2978"
         style="stroke-width:0.999998" /></clipPath><clipPath
       clipPathUnits="userSpaceOnUse"
       id="clipPath2980"><path
         d="m -256.7642,390.4043 h 612 v -792 h -612 z"
         id="path2982"
         style="stroke-width:0.999998" /></clipPath><clipPath
       clipPathUnits="userSpaceOnUse"
       id="clipPath2984"><path
         d="m -251.7305,390.4043 h 612 v -792 h -612 z"
         id="path2986"
         style="stroke-width:0.999998" /></clipPath><clipPath
       clipPathUnits="userSpaceOnUse"
       id="clipPath2988"><path
         d="m -246.7646,392.1968 h 612 v -792 h -612 z"
         id="path2990"
         style="stroke-width:0.999998" /></clipPath><clipPath
       clipPathUnits="userSpaceOnUse"
       id="clipPath2992"><path
         d="m -241.4585,392.1968 h 612 v -792 h -612 z"
         id="path2994"
         style="stroke-width:0.999998" /></clipPath><clipPath
       clipPathUnits="userSpaceOnUse"
       id="clipPath2996"><path
         d="m -235.3535,392.1968 h 612 v -792 h -612 z"
         id="path2998"
         style="stroke-width:0.999998" /></clipPath><clipPath
       clipPathUnits="userSpaceOnUse"
       id="clipPath3000"><path
         d="m -230.5244,392.1968 h 612 v -792 h -612 z"
         id="path3002"
         style="stroke-width:0.999998" /></clipPath><clipPath
       clipPathUnits="userSpaceOnUse"
       id="clipPath3004"><path
         d="m -225.5396,392.1968 h 612 v -792 h -612 z"
         id="path3006"
         style="stroke-width:0.999998" /></clipPath><clipPath
       clipPathUnits="userSpaceOnUse"
       id="clipPath3008"><path
         d="m -220.9062,385.6304 h 612 v -792 h -612 z"
         id="path3010"
         style="stroke-width:0.999998" /></clipPath><clipPath
       clipPathUnits="userSpaceOnUse"
       id="clipPath3012"><path
         d="m -208.7031,388.9429 h 612 v -792 h -612 z"
         id="path3014"
         style="stroke-width:0.999998" /></clipPath><clipPath
       clipPathUnits="userSpaceOnUse"
       id="clipPath3016"><path
         d="m -201.8101,392.1968 h 612 v -792 h -612 z"
         id="path3018"
         style="stroke-width:0.999998" /></clipPath><clipPath
       clipPathUnits="userSpaceOnUse"
       id="clipPath3020"><path
         d="m -195.9663,386.3516 h 612 v -792 h -612 z"
         id="path3022"
         style="stroke-width:0.999998" /></clipPath><clipPath
       clipPathUnits="userSpaceOnUse"
       id="clipPath3024"><path
         d="m -190.9146,385.6304 h 612 v -792 h -612 z"
         id="path3026"
         style="stroke-width:0.999998" /></clipPath><clipPath
       clipPathUnits="userSpaceOnUse"
       id="clipPath3028"><path
         d="m -181.3599,388.8843 h 612 v -792 h -612 z"
         id="path3030"
         style="stroke-width:0.999998" /></clipPath><clipPath
       clipPathUnits="userSpaceOnUse"
       id="clipPath3032"><path
         d="m -174.3765,387.4619 h 612 v -792 h -612 z"
         id="path3034"
         style="stroke-width:0.999998" /></clipPath><clipPath
       clipPathUnits="userSpaceOnUse"
       id="clipPath3036"><path
         d="m -169.6641,391.9043 h 612 v -792 h -612 z"
         id="path3038"
         style="stroke-width:0.999998" /></clipPath><clipPath
       clipPathUnits="userSpaceOnUse"
       id="clipPath3040"><path
         d="m -391.9307,335.9482 h 612 v -792 h -612 z"
         id="path3042"
         style="stroke-width:0.999998" /></clipPath><clipPath
       clipPathUnits="userSpaceOnUse"
       id="clipPath3044"><path
         d="m -348.6035,352.6826 h 612 v -792 h -612 z"
         id="path3046"
         style="stroke-width:0.999998" /></clipPath><clipPath
       clipPathUnits="userSpaceOnUse"
       id="clipPath3048"><path
         d="m -338.8857,347.2871 h 612 v -792 h -612 z"
         id="path3050"
         style="stroke-width:0.999998" /></clipPath><clipPath
       clipPathUnits="userSpaceOnUse"
       id="clipPath3052"><path
         d="m -313.0479,346.251 h 612 v -792 h -612 z"
         id="path3054"
         style="stroke-width:0.999998" /></clipPath><clipPath
       clipPathUnits="userSpaceOnUse"
       id="clipPath3056"><path
         d="m -292.708,344.6968 h 612 v -792 h -612 z"
         id="path3058"
         style="stroke-width:0.999998" /></clipPath><clipPath
       clipPathUnits="userSpaceOnUse"
       id="clipPath3060"><path
         d="m -267.0532,337.4111 h 612 v -792 h -612 z"
         id="path3062"
         style="stroke-width:0.999998" /></clipPath><clipPath
       clipPathUnits="userSpaceOnUse"
       id="clipPath3064"><path
         d="m -251.7568,347.2871 h 612 v -792 h -612 z"
         id="path3066"
         style="stroke-width:0.999998" /></clipPath><clipPath
       clipPathUnits="userSpaceOnUse"
       id="clipPath3068"><path
         d="m -233.7212,335.9482 h 612 v -792 h -612 z"
         id="path3070"
         style="stroke-width:0.999998" /></clipPath><clipPath
       clipPathUnits="userSpaceOnUse"
       id="clipPath3072"><path
         d="m -203.4888,347.2871 h 612 v -792 h -612 z"
         id="path3074"
         style="stroke-width:0.999998" /></clipPath><clipPath
       clipPathUnits="userSpaceOnUse"
       id="clipPath3076"><path
         d="m -180.2373,335.9482 h 612 v -792 h -612 z"
         id="path3078"
         style="stroke-width:0.999998" /></clipPath><clipPath
       clipPathUnits="userSpaceOnUse"
       id="clipPath3080"><path
         d="m -173.5425,335.9482 h 612 v -792 h -612 z"
         id="path3082"
         style="stroke-width:0.999998" /></clipPath><clipPath
       clipPathUnits="userSpaceOnUse"
       id="clipPath3084"><path
         d="m -390.2686,367.1304 h 612 v -792 h -612 z"
         id="path3086"
         style="stroke-width:0.999998" /></clipPath><clipPath
       clipPathUnits="userSpaceOnUse"
       id="clipPath3088"><path
         d="m -370.6523,361.5601 h 612 v -792 h -612 z"
         id="path3090"
         style="stroke-width:0.999998" /></clipPath><clipPath
       clipPathUnits="userSpaceOnUse"
       id="clipPath3092"><path
         d="m -357.0449,360.4414 h 612 v -792 h -612 z"
         id="path3094"
         style="stroke-width:0.999998" /></clipPath><clipPath
       clipPathUnits="userSpaceOnUse"
       id="clipPath3096"><path
         d="m -346.9814,369.1113 h 612 v -792 h -612 z"
         id="path3098"
         style="stroke-width:0.999998" /></clipPath><clipPath
       clipPathUnits="userSpaceOnUse"
       id="clipPath3100"><path
         d="m -329.2021,361.5366 h 612 v -792 h -612 z"
         id="path3102"
         style="stroke-width:0.999998" /></clipPath><clipPath
       clipPathUnits="userSpaceOnUse"
       id="clipPath3104"><path
         d="m -320.5869,367.1304 h 612 v -792 h -612 z"
         id="path3106"
         style="stroke-width:0.999998" /></clipPath><clipPath
       clipPathUnits="userSpaceOnUse"
       id="clipPath3108"><path
         d="m -291.9795,360.4414 h 612 v -792 h -612 z"
         id="path3110"
         style="stroke-width:0.999998" /></clipPath><clipPath
       clipPathUnits="userSpaceOnUse"
       id="clipPath3112"><path
         d="m -281.915,369.1113 h 612 v -792 h -612 z"
         id="path3114"
         style="stroke-width:0.999998" /></clipPath><clipPath
       clipPathUnits="userSpaceOnUse"
       id="clipPath3116"><path
         d="m -247.2539,376.6631 h 612 v -792 h -612 z"
         id="path3118"
         style="stroke-width:0.999998" /></clipPath><clipPath
       clipPathUnits="userSpaceOnUse"
       id="clipPath3120"><path
         d="m -224.6597,371.0225 h 612 v -792 h -612 z"
         id="path3122"
         style="stroke-width:0.999998" /></clipPath><clipPath
       clipPathUnits="userSpaceOnUse"
       id="clipPath3124"><path
         d="m -210.4932,369.1113 h 612 v -792 h -612 z"
         id="path3126"
         style="stroke-width:0.999998" /></clipPath><clipPath
       clipPathUnits="userSpaceOnUse"
       id="clipPath3128"><path
         d="m -196.7734,367.1304 h 612 v -792 h -612 z"
         id="path3130"
         style="stroke-width:0.999998" /></clipPath><clipPath
       clipPathUnits="userSpaceOnUse"
       id="clipPath3132"><path
         d="m -174.9624,361.5366 h 612 v -792 h -612 z"
         id="path3134"
         style="stroke-width:0.999998" /></clipPath><clipPath
       clipPathUnits="userSpaceOnUse"
       id="clipPath3136"><path
         d="m -160.5439,368.3188 h 612 v -792 h -612 z"
         id="path3138"
         style="stroke-width:0.999998" /></clipPath><clipPath
       clipPathUnits="userSpaceOnUse"
       id="clipPath3140"><path
         d="m -251.7061,314.8828 h 612 v -792 h -612 z"
         id="path3142"
         style="stroke-width:0.999998" /></clipPath></defs><g
     id="g1295"
     transform="matrix(0.35277776,0,0,-0.35277778,-64.667718,176.45345)"><g
       id="g1303"
       transform="translate(183.3105,460.7529)"><path
         id="path1305"
         style="fill:#aa8266;fill-opacity:1;fill-rule:evenodd;stroke:none"
         d="M 88.067452,39.426908 C 76.354577,39.298748 54.912098,35.296128 39.607488,28.490384 7.88652,14.383398 -4.2386149e-4,6.3841774e-4 -4.2386149e-4,6.3841774e-4 c 0,0 13.69410686149,9.61888368226 33.41308786149,18.42187458226 32.795967,14.641986 74.702926,15.78615 78.711916,16.702149 4.008,0.914999 -9.83972,2.974677 -19.67871,4.117675 -1.229874,0.143 -2.70515,0.202879 -4.378418,0.184571 z" /></g><g
       id="g1307"
       transform="translate(207.2495,467.9658)"><path
         d="m 0,0 c 0,0 24.05,14.871 55.389,20.59 25.042,4.571 54.66,4.576 60.49,2.059 7.579,-3.271 21.135,-9.151 17.127,-8.922 -4.008,0.229 -31.184,5.982 -55.389,4.576 C 38.262,16.015 0,0 0,0"
         style="fill:#005ea0;fill-opacity:1;fill-rule:evenodd;stroke:none"
         id="path1309" /></g><g
       id="g1311"
       transform="translate(251.7061,477.1172)"
       clip-path="url(#clipPath3140)"><path
         id="path1313"
         style="fill:#92aad1;fill-opacity:1;fill-rule:evenodd;stroke:none"
         d="M 44.676736,5.5430766 C 21.531921,5.3753097 4.6396026e-4,1.0784591e-4 4.6396026e-4,1.0784591e-4 c 0,0 27.69416703974,1.60248255409 51.74414303974,-0.22851562591 C 75.795583,-2.0584059 110.04908,-13.956439 112.60008,-14.185439 c 2.55,-0.228 -8.74819,9.7880106 -16.034181,12.5830078 -6.558994,2.51699748 -18.060234,4.7087441 -38.991213,6.6357421 -4.270152,0.3932809 -8.611873,0.5408336 -12.89795,0.5097657 z" /></g></g></svg>
