<?xml version="1.0" encoding="UTF-8" standalone="no"?>
<!-- Created with Inkscape (http://www.inkscape.org/) -->

<svg
   width="96.158279mm"
   height="36.384342mm"
   viewBox="0 0 96.158276 36.384342"
   version="1.1"
   id="svg1281"
   xml:space="preserve"
   inkscape:export-filename="kbbhCleaned.svg"
   inkscape:export-xdpi="96"
   inkscape:export-ydpi="96"
   xmlns:inkscape="http://www.inkscape.org/namespaces/inkscape"
   xmlns:sodipodi="http://sodipodi.sourceforge.net/DTD/sodipodi-0.dtd"
   xmlns="http://www.w3.org/2000/svg"
   xmlns:svg="http://www.w3.org/2000/svg"><sodipodi:namedview
     id="namedview1283"
     pagecolor="#ffffff"
     bordercolor="#000000"
     borderopacity="0.25"
     inkscape:showpageshadow="2"
     inkscape:pageopacity="0.0"
     inkscape:pagecheckerboard="0"
     inkscape:deskcolor="#d1d1d1"
     inkscape:document-units="mm"
     showgrid="false" /><defs
     id="defs1278"><clipPath
       clipPathUnits="userSpaceOnUse"
       id="clipPath2924"><path
         d="m -367.043,386.8892 h 612 v -792 h -612 z"
         id="path2926"
         style="stroke-width:0.999998" /></clipPath><clipPath
       clipPathUnits="userSpaceOnUse"
       id="clipPath2928"><path
         d="m -392.5039,386.3335 h 612 v -792 h -612 z"
         id="path2930"
         style="stroke-width:0.999998" /></clipPath><clipPath
       clipPathUnits="userSpaceOnUse"
       id="clipPath2932"><path
         d="m -386.7119,386.3271 h 612 v -792 h -612 z"
         id="path2934"
         style="stroke-width:0.999998" /></clipPath><clipPath
       clipPathUnits="userSpaceOnUse"
       id="clipPath2936"><path
         d="m -354.0059,383.9712 h 612 v -792 h -612 z"
         id="path2938"
         style="stroke-width:0.999998" /></clipPath><clipPath
       clipPathUnits="userSpaceOnUse"
       id="clipPath2940"><path
         d="m -338.1729,381.1182 h 612 v -792 h -612 z"
         id="path2942"
         style="stroke-width:0.999998" /></clipPath><clipPath
       clipPathUnits="userSpaceOnUse"
       id="clipPath2944"><path
         d="m -322.3281,385.6304 h 612 v -792 h -612 z"
         id="path2946"
         style="stroke-width:0.999998" /></clipPath><clipPath
       clipPathUnits="userSpaceOnUse"
       id="clipPath2948"><path
         d="m -316.9619,386.3516 h 612 v -792 h -612 z"
         id="path2950"
         style="stroke-width:0.999998" /></clipPath><clipPath
       clipPathUnits="userSpaceOnUse"
       id="clipPath2952"><path
         d="m -308.5977,392.1968 h 612 v -792 h -612 z"
         id="path2954"
         style="stroke-width:0.999998" /></clipPath><clipPath
       clipPathUnits="userSpaceOnUse"
       id="clipPath2956"><path
         d="m -301.9663,389.4688 h 612 v -792 h -612 z"
         id="path2958"
         style="stroke-width:0.999998" /></clipPath><clipPath
       clipPathUnits="userSpaceOnUse"
       id="clipPath2960"><path
         d="m -295.5981,392.1968 h 612 v -792 h -612 z"
         id="path2962"
         style="stroke-width:0.999998" /></clipPath><clipPath
       clipPathUnits="userSpaceOnUse"
       id="clipPath2964"><path
         d="m -287.5356,392.1968 h 612 v -792 h -612 z"
         id="path2966"
         style="stroke-width:0.999998" /></clipPath><clipPath
       clipPathUnits="userSpaceOnUse"
       id="clipPath2968"><path
         d="m -278.7993,388.8843 h 612 v -792 h -612 z"
         id="path2970"
         style="stroke-width:0.999998" /></clipPath><clipPath
       clipPathUnits="userSpaceOnUse"
       id="clipPath2972"><path
         d="m -272.8096,385.8154 h 612 v -792 h -612 z"
         id="path2974"
         style="stroke-width:0.999998" /></clipPath><clipPath
       clipPathUnits="userSpaceOnUse"
       id="clipPath2976"><path
         d="m -263.3535,388.9429 h 612 v -792 h -612 z"
         id="path2978"
         style="stroke-width:0.999998" /></clipPath><clipPath
       clipPathUnits="userSpaceOnUse"
       id="clipPath2980"><path
         d="m -256.7642,390.4043 h 612 v -792 h -612 z"
         id="path2982"
         style="stroke-width:0.999998" /></clipPath><clipPath
       clipPathUnits="userSpaceOnUse"
       id="clipPath2984"><path
         d="m -251.7305,390.4043 h 612 v -792 h -612 z"
         id="path2986"
         style="stroke-width:0.999998" /></clipPath><clipPath
       clipPathUnits="userSpaceOnUse"
       id="clipPath2988"><path
         d="m -246.7646,392.1968 h 612 v -792 h -612 z"
         id="path2990"
         style="stroke-width:0.999998" /></clipPath><clipPath
       clipPathUnits="userSpaceOnUse"
       id="clipPath2992"><path
         d="m -241.4585,392.1968 h 612 v -792 h -612 z"
         id="path2994"
         style="stroke-width:0.999998" /></clipPath><clipPath
       clipPathUnits="userSpaceOnUse"
       id="clipPath2996"><path
         d="m -235.3535,392.1968 h 612 v -792 h -612 z"
         id="path2998"
         style="stroke-width:0.999998" /></clipPath><clipPath
       clipPathUnits="userSpaceOnUse"
       id="clipPath3000"><path
         d="m -230.5244,392.1968 h 612 v -792 h -612 z"
         id="path3002"
         style="stroke-width:0.999998" /></clipPath><clipPath
       clipPathUnits="userSpaceOnUse"
       id="clipPath3004"><path
         d="m -225.5396,392.1968 h 612 v -792 h -612 z"
         id="path3006"
         style="stroke-width:0.999998" /></clipPath><clipPath
       clipPathUnits="userSpaceOnUse"
       id="clipPath3008"><path
         d="m -220.9062,385.6304 h 612 v -792 h -612 z"
         id="path3010"
         style="stroke-width:0.999998" /></clipPath><clipPath
       clipPathUnits="userSpaceOnUse"
       id="clipPath3012"><path
         d="m -208.7031,388.9429 h 612 v -792 h -612 z"
         id="path3014"
         style="stroke-width:0.999998" /></clipPath><clipPath
       clipPathUnits="userSpaceOnUse"
       id="clipPath3016"><path
         d="m -201.8101,392.1968 h 612 v -792 h -612 z"
         id="path3018"
         style="stroke-width:0.999998" /></clipPath><clipPath
       clipPathUnits="userSpaceOnUse"
       id="clipPath3020"><path
         d="m -195.9663,386.3516 h 612 v -792 h -612 z"
         id="path3022"
         style="stroke-width:0.999998" /></clipPath><clipPath
       clipPathUnits="userSpaceOnUse"
       id="clipPath3024"><path
         d="m -190.9146,385.6304 h 612 v -792 h -612 z"
         id="path3026"
         style="stroke-width:0.999998" /></clipPath><clipPath
       clipPathUnits="userSpaceOnUse"
       id="clipPath3028"><path
         d="m -181.3599,388.8843 h 612 v -792 h -612 z"
         id="path3030"
         style="stroke-width:0.999998" /></clipPath><clipPath
       clipPathUnits="userSpaceOnUse"
       id="clipPath3032"><path
         d="m -174.3765,387.4619 h 612 v -792 h -612 z"
         id="path3034"
         style="stroke-width:0.999998" /></clipPath><clipPath
       clipPathUnits="userSpaceOnUse"
       id="clipPath3036"><path
         d="m -169.6641,391.9043 h 612 v -792 h -612 z"
         id="path3038"
         style="stroke-width:0.999998" /></clipPath><clipPath
       clipPathUnits="userSpaceOnUse"
       id="clipPath3040"><path
         d="m -391.9307,335.9482 h 612 v -792 h -612 z"
         id="path3042"
         style="stroke-width:0.999998" /></clipPath><clipPath
       clipPathUnits="userSpaceOnUse"
       id="clipPath3044"><path
         d="m -348.6035,352.6826 h 612 v -792 h -612 z"
         id="path3046"
         style="stroke-width:0.999998" /></clipPath><clipPath
       clipPathUnits="userSpaceOnUse"
       id="clipPath3048"><path
         d="m -338.8857,347.2871 h 612 v -792 h -612 z"
         id="path3050"
         style="stroke-width:0.999998" /></clipPath><clipPath
       clipPathUnits="userSpaceOnUse"
       id="clipPath3052"><path
         d="m -313.0479,346.251 h 612 v -792 h -612 z"
         id="path3054"
         style="stroke-width:0.999998" /></clipPath><clipPath
       clipPathUnits="userSpaceOnUse"
       id="clipPath3056"><path
         d="m -292.708,344.6968 h 612 v -792 h -612 z"
         id="path3058"
         style="stroke-width:0.999998" /></clipPath><clipPath
       clipPathUnits="userSpaceOnUse"
       id="clipPath3060"><path
         d="m -267.0532,337.4111 h 612 v -792 h -612 z"
         id="path3062"
         style="stroke-width:0.999998" /></clipPath><clipPath
       clipPathUnits="userSpaceOnUse"
       id="clipPath3064"><path
         d="m -251.7568,347.2871 h 612 v -792 h -612 z"
         id="path3066"
         style="stroke-width:0.999998" /></clipPath><clipPath
       clipPathUnits="userSpaceOnUse"
       id="clipPath3068"><path
         d="m -233.7212,335.9482 h 612 v -792 h -612 z"
         id="path3070"
         style="stroke-width:0.999998" /></clipPath><clipPath
       clipPathUnits="userSpaceOnUse"
       id="clipPath3072"><path
         d="m -203.4888,347.2871 h 612 v -792 h -612 z"
         id="path3074"
         style="stroke-width:0.999998" /></clipPath><clipPath
       clipPathUnits="userSpaceOnUse"
       id="clipPath3076"><path
         d="m -180.2373,335.9482 h 612 v -792 h -612 z"
         id="path3078"
         style="stroke-width:0.999998" /></clipPath><clipPath
       clipPathUnits="userSpaceOnUse"
       id="clipPath3080"><path
         d="m -173.5425,335.9482 h 612 v -792 h -612 z"
         id="path3082"
         style="stroke-width:0.999998" /></clipPath><clipPath
       clipPathUnits="userSpaceOnUse"
       id="clipPath3084"><path
         d="m -390.2686,367.1304 h 612 v -792 h -612 z"
         id="path3086"
         style="stroke-width:0.999998" /></clipPath><clipPath
       clipPathUnits="userSpaceOnUse"
       id="clipPath3088"><path
         d="m -370.6523,361.5601 h 612 v -792 h -612 z"
         id="path3090"
         style="stroke-width:0.999998" /></clipPath><clipPath
       clipPathUnits="userSpaceOnUse"
       id="clipPath3092"><path
         d="m -357.0449,360.4414 h 612 v -792 h -612 z"
         id="path3094"
         style="stroke-width:0.999998" /></clipPath><clipPath
       clipPathUnits="userSpaceOnUse"
       id="clipPath3096"><path
         d="m -346.9814,369.1113 h 612 v -792 h -612 z"
         id="path3098"
         style="stroke-width:0.999998" /></clipPath><clipPath
       clipPathUnits="userSpaceOnUse"
       id="clipPath3100"><path
         d="m -329.2021,361.5366 h 612 v -792 h -612 z"
         id="path3102"
         style="stroke-width:0.999998" /></clipPath><clipPath
       clipPathUnits="userSpaceOnUse"
       id="clipPath3104"><path
         d="m -320.5869,367.1304 h 612 v -792 h -612 z"
         id="path3106"
         style="stroke-width:0.999998" /></clipPath><clipPath
       clipPathUnits="userSpaceOnUse"
       id="clipPath3108"><path
         d="m -291.9795,360.4414 h 612 v -792 h -612 z"
         id="path3110"
         style="stroke-width:0.999998" /></clipPath><clipPath
       clipPathUnits="userSpaceOnUse"
       id="clipPath3112"><path
         d="m -281.915,369.1113 h 612 v -792 h -612 z"
         id="path3114"
         style="stroke-width:0.999998" /></clipPath><clipPath
       clipPathUnits="userSpaceOnUse"
       id="clipPath3116"><path
         d="m -247.2539,376.6631 h 612 v -792 h -612 z"
         id="path3118"
         style="stroke-width:0.999998" /></clipPath><clipPath
       clipPathUnits="userSpaceOnUse"
       id="clipPath3120"><path
         d="m -224.6597,371.0225 h 612 v -792 h -612 z"
         id="path3122"
         style="stroke-width:0.999998" /></clipPath><clipPath
       clipPathUnits="userSpaceOnUse"
       id="clipPath3124"><path
         d="m -210.4932,369.1113 h 612 v -792 h -612 z"
         id="path3126"
         style="stroke-width:0.999998" /></clipPath><clipPath
       clipPathUnits="userSpaceOnUse"
       id="clipPath3128"><path
         d="m -196.7734,367.1304 h 612 v -792 h -612 z"
         id="path3130"
         style="stroke-width:0.999998" /></clipPath><clipPath
       clipPathUnits="userSpaceOnUse"
       id="clipPath3132"><path
         d="m -174.9624,361.5366 h 612 v -792 h -612 z"
         id="path3134"
         style="stroke-width:0.999998" /></clipPath><clipPath
       clipPathUnits="userSpaceOnUse"
       id="clipPath3136"><path
         d="m -160.5439,368.3188 h 612 v -792 h -612 z"
         id="path3138"
         style="stroke-width:0.999998" /></clipPath><clipPath
       clipPathUnits="userSpaceOnUse"
       id="clipPath3140"><path
         d="m -251.7061,314.8828 h 612 v -792 h -612 z"
         id="path3142"
         style="stroke-width:0.999998" /></clipPath></defs><g
     id="g1295"
     transform="matrix(0.35277776,0,0,-0.35277778,-48.908929,176.45364)"><g
       id="g1303"
       transform="translate(183.3105,460.7529)"><path
         id="path1305"
         style="fill:#aa8266;fill-opacity:1;fill-rule:evenodd;stroke:none"
         d="M 88.067452,39.426908 C 76.354577,39.298748 54.912098,35.296128 39.607488,28.490384 7.88652,14.383398 -4.2386149e-4,6.3841774e-4 -4.2386149e-4,6.3841774e-4 c 0,0 13.69410686149,9.61888368226 33.41308786149,18.42187458226 32.795967,14.641986 74.702926,15.78615 78.711916,16.702149 4.008,0.914999 -9.83972,2.974677 -19.67871,4.117675 -1.229874,0.143 -2.70515,0.202879 -4.378418,0.184571 z" /></g><g
       id="g1307"
       transform="translate(207.2495,467.9658)"><path
         d="m 0,0 c 0,0 24.05,14.871 55.389,20.59 25.042,4.571 54.66,4.576 60.49,2.059 7.579,-3.271 21.135,-9.151 17.127,-8.922 -4.008,0.229 -31.184,5.982 -55.389,4.576 C 38.262,16.015 0,0 0,0"
         style="fill:#005ea0;fill-opacity:1;fill-rule:evenodd;stroke:none"
         id="path1309" /></g><g
       id="g1311"
       transform="translate(251.7061,477.1172)"
       clip-path="url(#clipPath3140)"><path
         id="path1313"
         style="fill:#92aad1;fill-opacity:1;fill-rule:evenodd;stroke:none"
         d="M 44.676736,5.5430766 C 21.531921,5.3753097 4.6396026e-4,1.0784591e-4 4.6396026e-4,1.0784591e-4 c 0,0 27.69416703974,1.60248255409 51.74414303974,-0.22851562591 C 75.795583,-2.0584059 110.04908,-13.956439 112.60008,-14.185439 c 2.55,-0.228 -8.74819,9.7880106 -16.034181,12.5830078 -6.558994,2.51699748 -18.060234,4.7087441 -38.991213,6.6357421 -4.270152,0.3932809 -8.611873,0.5408336 -12.89795,0.5097657 z" /></g><g
       id="g1315"
       transform="translate(160.5439,423.6812)"
       clip-path="url(#clipPath3136)" /><g
       id="g1319"
       transform="translate(174.9624,430.4634)"
       clip-path="url(#clipPath3132)" /><g
       id="g1323"
       transform="translate(196.7734,424.8696)"
       clip-path="url(#clipPath3128)" /><g
       id="g1327"
       transform="translate(210.4932,422.8887)"
       clip-path="url(#clipPath3124)" /><g
       id="g1331"
       transform="translate(224.6597,420.9775)"
       clip-path="url(#clipPath3120)" /><g
       id="g1335"
       transform="translate(233.1157,415.6167)" /><g
       id="g1339"
       transform="translate(247.2539,415.3369)"
       clip-path="url(#clipPath3116)" /><g
       id="g1343"
       transform="translate(259.5254,415.6167)" /><g
       id="g1347"
       transform="translate(281.915,422.8887)"
       clip-path="url(#clipPath3112)" /><g
       id="g1351"
       transform="translate(291.9795,431.5586)"
       clip-path="url(#clipPath3108)" /><g
       id="g1355"
       transform="translate(320.5869,424.8696)"
       clip-path="url(#clipPath3104)" /><g
       id="g1359"
       transform="translate(329.2021,430.4634)"
       clip-path="url(#clipPath3100)" /><g
       id="g1363"
       transform="translate(346.9814,422.8887)"
       clip-path="url(#clipPath3096)" /><g
       id="g1367"
       transform="translate(357.0449,431.5586)"
       clip-path="url(#clipPath3092)" /><g
       id="g1371"
       transform="translate(370.6523,430.4399)"
       clip-path="url(#clipPath3088)" /><g
       id="g1375"
       transform="translate(390.2686,424.8696)"
       clip-path="url(#clipPath3084)" /><g
       id="g1379"
       transform="translate(173.5425,456.0518)"
       clip-path="url(#clipPath3080)" /><g
       id="g1383"
       transform="translate(180.2373,456.0518)"
       clip-path="url(#clipPath3076)" /><g
       id="g1387"
       transform="translate(203.4888,444.7129)"
       clip-path="url(#clipPath3072)" /><g
       id="g1391"
       transform="translate(233.7212,456.0518)"
       clip-path="url(#clipPath3068)" /><g
       id="g1395"
       transform="translate(251.7568,444.7129)"
       clip-path="url(#clipPath3064)" /><g
       id="g1399"
       transform="translate(267.0532,454.5889)"
       clip-path="url(#clipPath3060)" /><g
       id="g1403"
       transform="translate(292.708,447.3032)"
       clip-path="url(#clipPath3056)" /><g
       id="g1407"
       transform="translate(313.0479,445.749)"
       clip-path="url(#clipPath3052)" /><g
       id="g1411"
       transform="translate(338.8857,444.7129)"
       clip-path="url(#clipPath3048)" /><g
       id="g1415"
       transform="translate(348.6035,439.3174)"
       clip-path="url(#clipPath3044)" /><g
       id="g1419"
       transform="translate(365.21,435.2017)" /><g
       id="g1423"
       transform="translate(391.9307,456.0518)"
       clip-path="url(#clipPath3040)" /><g
       id="g1429"
       transform="translate(169.6641,400.0957)"
       clip-path="url(#clipPath3036)" /><g
       id="g1433"
       transform="translate(174.3765,404.5381)"
       clip-path="url(#clipPath3032)" /><g
       id="g1437"
       transform="translate(181.3599,403.1157)"
       clip-path="url(#clipPath3028)" /><g
       id="g1441"
       transform="translate(190.9146,406.3696)"
       clip-path="url(#clipPath3024)" /><g
       id="g1445"
       transform="translate(195.9663,405.6484)"
       clip-path="url(#clipPath3020)" /><g
       id="g1449"
       transform="translate(201.8101,399.8032)"
       clip-path="url(#clipPath3016)" /><g
       id="g1453"
       transform="translate(208.7031,403.0571)"
       clip-path="url(#clipPath3012)" /><g
       id="g1457"
       transform="translate(220.9062,406.3696)"
       clip-path="url(#clipPath3008)" /><g
       id="g1461"
       transform="translate(225.5396,399.8032)"
       clip-path="url(#clipPath3004)" /><g
       id="g1465"
       transform="translate(230.5244,399.8032)"
       clip-path="url(#clipPath3000)" /><g
       id="g1469"
       transform="translate(235.3535,399.8032)"
       clip-path="url(#clipPath2996)" /><g
       id="g1473"
       transform="translate(241.4585,399.8032)"
       clip-path="url(#clipPath2992)" /><g
       id="g1477"
       transform="translate(246.7646,399.8032)"
       clip-path="url(#clipPath2988)" /><g
       id="g1481"
       transform="translate(251.7305,401.5957)"
       clip-path="url(#clipPath2984)"><path
         id="path1483"
         style="fill:#ffffff;fill-opacity:1;fill-rule:evenodd;stroke:none"
         d="M -0.76661186,1.4678974 C -0.88228207,1.2096975 -1.0155953,0.95419974 -1.1665142,0.70324894 c 0.21417252,-0.21198155 0.30908202,-0.45903506 0.30908202,-0.77197265 0,-0.67199866 -0.50702512,-1.11914059 -1.37402352,-1.11914059 -0.1604166,0 -0.3167207,0.014266 -0.46875,0.039551 -0.2177437,-0.1981187 -0.4507546,-0.3898307 -0.6972657,-0.5756836 0.3340666,-0.1050953 0.7304202,-0.1743164 1.107422,-0.1743164 1.54899684,0 2.28955086144,0.8854395 2.28955086144,1.89843744664 C -4.9853856e-4,0.65464817 -0.25565266,1.1077674 -0.76661186,1.4678974 Z" /></g><g
       id="g1485"
       transform="translate(256.7642,401.5957)"
       clip-path="url(#clipPath2980)"><path
         id="path1487"
         style="fill:#ffffff;fill-opacity:1;fill-rule:evenodd;stroke:none"
         d="M -0.31300689,4.4122333 C -1.3427958,4.3483113 -2.3725664,4.2841484 -3.4023625,4.2203388 -3.6759444,3.9189164 -3.8286321,3.5326031 -3.8286321,3.0982685 c 0,-0.9149982 0.6609123,-1.4816063 1.7329103,-1.8706055 0.7524762,-0.2816484 1.11896238,-0.58328371 1.21289066,-1.03710937 0.24800622,0.15839346 0.50837909,0.31011264 0.78076176,0.45410156 -0.20767343,0.57728101 -0.73049487,0.95559251 -1.56445322,1.28466801 -0.9059982,0.3509992 -1.3051758,0.653091 -1.3051758,1.2670898 0,0.447999 0.3417948,0.9829101 1.237793,0.9829101 0.5939988,0 1.0313286,-0.1860119 1.23632818,-0.3120117 z M -3.7407414,-0.76012995 -3.9648625,-1.4705792 c 0.1974038,-0.1319785 0.5036355,-0.2506903 0.8466797,-0.3295898 0.1703973,0.2164158 0.3553492,0.4273618 0.5551758,0.6328125 -0.456584,0.053606 -0.8706729,0.21086875 -1.1777344,0.40722655 z" /></g><g
       id="g1489"
       transform="translate(263.3535,403.0571)"
       clip-path="url(#clipPath2976)"><path
         id="path1491"
         style="fill:#ffffff;fill-opacity:1;fill-rule:evenodd;stroke:none"
         d="m -1.0502558,1.0230989 c -0.2928376,-0.00802 -0.5552847,-0.13996295 -0.7368165,-0.34423825 0.4470274,0.0601227 0.90798572,0.10607195 1.3857423,0.13623047 -0.17237633,0.13093691 -0.38704336,0.20800778 -0.6210938,0.20800778 -0.00951,0 -0.018386,2.588e-4 -0.027832,0 z" /></g><g
       id="g1493"
       transform="translate(272.8096,406.1846)"
       clip-path="url(#clipPath2972)"><path
         id="path1495"
         style="fill:#ffffff;fill-opacity:1;fill-rule:evenodd;stroke:none"
         d="m -1.5590897,0.29208329 c -1.7547721,0 -3.0307656,-1.0272894 -3.3500979,-2.63378909 0.2979002,-0.0051 0.5956338,-0.014895 0.8935548,-0.019043 0.2631372,1.2461159 1.1925389,1.94238278 2.4873048,1.94238278 0.54499886,0 1.00196551,-0.1179261 1.31396489,-0.27392578 L -4.959138e-4,5.7938648e-4 C -0.22449547,0.11757915 -0.7500914,0.29208329 -1.5590897,0.29208329 Z" /></g><g
       id="g1497"
       transform="translate(278.7993,403.1157)"
       clip-path="url(#clipPath2968)"><path
         id="path1499"
         style="fill:#ffffff;fill-opacity:1;fill-rule:evenodd;stroke:none"
         d="m -2.0556254,3.3609833 c -1.5334303,0 -2.7103986,-1.0441406 -2.9809572,-2.70117187 0.2973878,-0.002101 0.5947,-0.002467 0.8920899,-0.004395 0.2011234,1.11488297 0.8820415,2.01416007 2.0493165,2.01416007 1.18420944,0 1.85435689,-0.9591546 2.04052746,-2.03759757 0.30764204,-0.001314 0.61520896,-0.003202 0.92285161,-0.004395 C 0.65677037,2.2575351 -0.44057811,3.3609833 -2.0556254,3.3609833 Z" /></g><g
       id="g1501"
       transform="translate(287.5356,399.8032)"
       clip-path="url(#clipPath2964)"><path
         id="path1503"
         style="fill:#ffffff;fill-opacity:1;fill-rule:evenodd;stroke:none"
         d="M -6.2450502,6.5665497 -6.4281557,3.9356903 c 0.2558343,-8.529e-4 0.5117442,-0.00214 0.7675782,-0.00293 0.030741,0.6414393 0.056213,1.26824 0.068848,1.7856445 h 0.019043 c 0.1330773,-0.5610825 0.2972112,-1.151405 0.4980469,-1.7871094 0.280244,-8.154e-4 0.5605771,-7.166e-4 0.8408204,-0.00146 L -5.163995,6.5665541 Z m 4.7534182,0 -0.9726563,-2.6425781 c 0.2538776,-5.895e-4 0.5078424,-9.093e-4 0.7617188,-0.00146 0.2199605,0.6383807 0.4097299,1.2354778 0.581543,1.7958985 h 0.020508 c 0,-0.5189873 0.024118,-1.1612816 0.054199,-1.7973633 0.26708303,-4.942e-4 0.53418404,-0.00102 0.80126953,-0.00146 l -0.16552735,2.6469726 z" /></g><g
       id="g1505"
       transform="translate(295.5981,399.8032)"
       clip-path="url(#clipPath2960)"><path
         id="path1507"
         style="fill:#ffffff;fill-opacity:1;fill-rule:evenodd;stroke:none"
         d="M -6.2450498,6.5665497 -6.4296201,3.9181122 c 0.2563473,-3.409e-4 0.5126947,3.076e-4 0.769043,0 0.031251,0.6465915 0.056752,1.278926 0.068848,1.800293 h 0.019043 c 0.134106,-0.5654197 0.299381,-1.1604355 0.5024415,-1.8017578 0.2807633,-3.106e-4 0.5615211,2.753e-4 0.8422852,0 l -0.9345704,2.6499023 z m 4.7548831,0 -0.9770508,-2.6513672 c 0.2543975,-1.914e-4 0.5087862,-0.00129 0.7631836,-0.00146 0.2210505,0.6417556 0.411114,1.2416425 0.5844727,1.8046875 h 0.019043 c 0,-0.5209778 0.023958,-1.1662237 0.054199,-1.8046875 0.26758047,-1.608e-4 0.53515474,-0.00132 0.80273438,-0.00146 l -0.16552735,2.6542969 z" /></g><g
       id="g1509"
       transform="translate(301.9663,402.5312)"
       clip-path="url(#clipPath2956)"><path
         id="path1511"
         style="fill:#ffffff;fill-opacity:1;fill-rule:evenodd;stroke:none"
         d="M -4.8422533,3.8385497 V 1.182788 c 0.2856423,-1.148e-4 0.5712935,1.019e-4 0.8569337,0 v 2.6557617 z m 3.98584006,0 V 1.1871825 c 0.28567306,6.287e-4 0.57126606,3.751e-4 0.85693363931,0.00146 v 2.6499023 z" /></g><g
       id="g1513"
       transform="translate(308.5977,399.8032)"
       clip-path="url(#clipPath2952)"><path
         id="path1515"
         style="fill:#ffffff;fill-opacity:1;fill-rule:evenodd;stroke:none"
         d="m -4.9301959,6.5665497 v -2.644043 c 0.2641707,0.00181 0.5283137,0.00518 0.7924805,0.00732 -0.00722,0.564262 -0.021526,1.0704195 -0.05127,1.583496 l 0.029297,0.010254 c 0.2334048,-0.5153752 0.5279393,-1.0507843 0.8466798,-1.584961 0.3232499,0.00304 0.6464816,0.00676 0.9697266,0.010254 l -1.6523439,2.6176758 z m 4.13085956,0 V 3.9635224 c 0.26659825,0.00343 0.53320921,0.0095 0.79980472974,0.013184 v 2.5898437 z" /></g><g
       id="g1519"
       transform="translate(316.9619,405.6484)"
       clip-path="url(#clipPath2948)"><path
         id="path1521"
         style="fill:#ffffff;fill-opacity:1;fill-rule:evenodd;stroke:none"
         d="M -4.86129,0.7213497 V 6.4657736e-4 h 1.9965821 V -1.7762089 c 0.2861123,0.00531 0.572287,0.00921 0.8583985,0.014649 V 6.4657736e-4 H 5.2662375e-4 V 0.7213497 Z" /></g><g
       id="g1523"
       transform="translate(322.3281,406.3696)"
       clip-path="url(#clipPath2944)"><path
         id="path1525"
         style="fill:#ffffff;fill-opacity:1;fill-rule:evenodd;stroke:none"
         d="M -5.1342281,1.4969782e-4 -3.7997553,-2.4197722 c 0.2871327,0.00457 0.5742017,0.00994 0.8613281,0.014649 -0.092001,0.1885737 -0.187995,0.3812933 -0.2958984,0.5932617 L -4.1601069,1.4969782e-4 Z" /></g><g
       id="g1527"
       transform="translate(338.1729,410.8818)"
       clip-path="url(#clipPath2940)" /><g
       id="g1531"
       transform="translate(354.0059,408.0288)"
       clip-path="url(#clipPath2936)" /><g
       id="g1535"
       transform="translate(386.7119,405.6729)"
       clip-path="url(#clipPath2932)" /><g
       id="g1539"
       transform="translate(392.5039,405.6665)"
       clip-path="url(#clipPath2928)" /><g
       id="g1543"
       transform="translate(367.043,405.1108)"
       clip-path="url(#clipPath2924)" /></g></svg>
