<?xml version="1.0" encoding="UTF-8" standalone="no"?>
<!-- Created with Inkscape (http://www.inkscape.org/) -->

<svg
   width="21.210764mm"
   height="5.3242631mm"
   viewBox="0 0 21.210763 5.3242631"
   version="1.1"
   id="svg1281"
   xml:space="preserve"
   inkscape:export-filename="kbbh.svg"
   inkscape:export-xdpi="96"
   inkscape:export-ydpi="96"
   sodipodi:docname="kbbhOnly.svg"
   inkscape:version="1.2 (dc2aedaf03, 2022-05-15)"
   xmlns:inkscape="http://www.inkscape.org/namespaces/inkscape"
   xmlns:sodipodi="http://sodipodi.sourceforge.net/DTD/sodipodi-0.dtd"
   xmlns="http://www.w3.org/2000/svg"
   xmlns:svg="http://www.w3.org/2000/svg"><sodipodi:namedview
     id="namedview1283"
     pagecolor="#ffffff"
     bordercolor="#000000"
     borderopacity="0.25"
     inkscape:showpageshadow="2"
     inkscape:pageopacity="0.0"
     inkscape:pagecheckerboard="0"
     inkscape:deskcolor="#d1d1d1"
     inkscape:document-units="mm"
     showgrid="false"
     inkscape:zoom="10.939586"
     inkscape:cx="32.816598"
     inkscape:cy="9.7809915"
     inkscape:window-width="1920"
     inkscape:window-height="1057"
     inkscape:window-x="1912"
     inkscape:window-y="-8"
     inkscape:window-maximized="1"
     inkscape:current-layer="svg1281" /><defs
     id="defs1278"><clipPath
       clipPathUnits="userSpaceOnUse"
       id="clipPath1301"><path
         d="M 0,792 H 612 V 0 H 0 Z"
         id="path1299" /></clipPath></defs><g
     id="g1835"
     transform="matrix(0.35277777,0,0,-0.35277777,-117.25624,144.95)"><g
       id="g1527"
       transform="translate(338.1729,410.8818)"><path
         d="M 0,0 H -5.793 V -15.086 H 0 v 6.398 h 0.043 l 3.761,-6.398 h 6.917 L 5.166,-7.068 10.245,0 H 3.652 L 0.043,-5.922 H 0 Z"
         style="fill:#005ea0;fill-opacity:1;fill-rule:evenodd;stroke:none"
         id="path1529" /></g><g
       id="g1531"
       transform="translate(354.0059,408.0288)"><path
         d="m 0,0 h 1.578 c 1.037,0 1.988,-0.346 1.988,-1.47 0,-1.145 -1.102,-1.448 -2.118,-1.448 H 0 Z m 0,-6.03 h 1.556 c 1.081,0 2.162,-0.238 2.162,-1.535 0,-1.167 -1.146,-1.556 -2.205,-1.556 H 0 Z m -5.447,-6.203 h 8.754 c 3.134,0 6.203,0.389 6.203,4.192 0,1.514 -1.296,3.156 -3.393,3.437 v 0.043 c 2.01,0.519 3.112,1.622 3.112,3.697 0,2.874 -2.572,3.717 -5.187,3.717 h -9.489 z"
         style="fill:#005ea0;fill-opacity:1;fill-rule:evenodd;stroke:none"
         id="path1533" /></g><g
       id="g1535"
       transform="translate(386.7119,405.6729)"><path
         d="M 0,0 H -3.869 V 5.209 H -9.661 V -9.877 h 5.792 v 5.425 H 0 V -9.877 H 5.793 V 5.209 H 0 Z"
         style="fill:#005ea0;fill-opacity:1;fill-rule:evenodd;stroke:none"
         id="path1537" /></g><g
       id="g1539"
       transform="translate(392.5039,405.6665)"><path
         d="M 0,0 V 5.209 H -5.792 V -9.877 H 0 v 5.425 z"
         style="fill:#005ea0;fill-opacity:1;fill-rule:evenodd;stroke:none"
         id="path1541" /></g><g
       id="g1543"
       transform="translate(367.043,405.1108)"><path
         d="m 0,0 h 1.448 c 1.016,0 2.118,0.303 2.118,1.448 0,1.124 -0.951,1.47 -1.988,1.47 H 0 Z m 0,-6.203 h 1.513 c 1.059,0 2.205,0.389 2.205,1.556 0,1.297 -1.081,1.535 -2.161,1.535 H 0 Z M -5.086,5.766 h 9.128 c 0,0 5.141,0.288 5.187,-3.712 0.042,-3.488 -3.247,-3.725 -3.247,-3.725 0,0 3.59,-0.576 3.55,-3.43 -0.061,-4.353 -4.789,-4.18 -4.789,-4.18 l -9.569,0.029 c 0,0 2.154,0.736 2.142,4.129 -0.009,2.673 -2.097,3.489 -2.097,3.489 0,0 1.7,0.828 1.857,3.45 0.173,2.883 -2.162,3.95 -2.162,3.95"
         style="fill:#005ea0;fill-opacity:1;fill-rule:evenodd;stroke:none"
         id="path1545" /></g></g></svg>
