<?xml version="1.0" encoding="UTF-8" standalone="no"?>
<!-- Created with Inkscape (http://www.inkscape.org/) -->

<svg
   width="210mm"
   height="297mm"
   viewBox="0 0 210 297"
   version="1.1"
   id="svg1"
   xml:space="preserve"
   inkscape:version="1.3 (0e150ed6c4, 2023-07-21)"
   sodipodi:docname="myKBBH.svg"
   xmlns:inkscape="http://www.inkscape.org/namespaces/inkscape"
   xmlns:sodipodi="http://sodipodi.sourceforge.net/DTD/sodipodi-0.dtd"
   xmlns="http://www.w3.org/2000/svg"
   xmlns:svg="http://www.w3.org/2000/svg"><sodipodi:namedview
     id="namedview1"
     pagecolor="#ffffff"
     bordercolor="#000000"
     borderopacity="0.25"
     inkscape:showpageshadow="2"
     inkscape:pageopacity="0.0"
     inkscape:pagecheckerboard="0"
     inkscape:deskcolor="#d1d1d1"
     inkscape:document-units="mm"
     showguides="false"
     inkscape:zoom="0.70710678"
     inkscape:cx="309.71277"
     inkscape:cy="581.94888"
     inkscape:window-width="1920"
     inkscape:window-height="1057"
     inkscape:window-x="1912"
     inkscape:window-y="-8"
     inkscape:window-maximized="1"
     inkscape:current-layer="g40573" /><defs
     id="defs1"><clipPath
       clipPathUnits="userSpaceOnUse"
       id="clipPath1301"><path
         d="M 0,792 H 612 V 0 H 0 Z"
         id="path1299" /></clipPath><clipPath
       clipPathUnits="userSpaceOnUse"
       id="clipPath2924"><path
         d="m -367.043,386.8892 h 612 v -792 h -612 z"
         id="path2926"
         style="stroke-width:0.999998" /></clipPath><clipPath
       clipPathUnits="userSpaceOnUse"
       id="clipPath2928"><path
         d="m -392.5039,386.3335 h 612 v -792 h -612 z"
         id="path2930"
         style="stroke-width:0.999998" /></clipPath><clipPath
       clipPathUnits="userSpaceOnUse"
       id="clipPath2932"><path
         d="m -386.7119,386.3271 h 612 v -792 h -612 z"
         id="path2934"
         style="stroke-width:0.999998" /></clipPath><clipPath
       clipPathUnits="userSpaceOnUse"
       id="clipPath2936"><path
         d="m -354.0059,383.9712 h 612 v -792 h -612 z"
         id="path2938"
         style="stroke-width:0.999998" /></clipPath><clipPath
       clipPathUnits="userSpaceOnUse"
       id="clipPath2940"><path
         d="m -338.1729,381.1182 h 612 v -792 h -612 z"
         id="path2942"
         style="stroke-width:0.999998" /></clipPath><clipPath
       clipPathUnits="userSpaceOnUse"
       id="clipPath2944"><path
         d="m -322.3281,385.6304 h 612 v -792 h -612 z"
         id="path2946"
         style="stroke-width:0.999998" /></clipPath><clipPath
       clipPathUnits="userSpaceOnUse"
       id="clipPath2948"><path
         d="m -316.9619,386.3516 h 612 v -792 h -612 z"
         id="path2950"
         style="stroke-width:0.999998" /></clipPath><clipPath
       clipPathUnits="userSpaceOnUse"
       id="clipPath2952"><path
         d="m -308.5977,392.1968 h 612 v -792 h -612 z"
         id="path2954"
         style="stroke-width:0.999998" /></clipPath><clipPath
       clipPathUnits="userSpaceOnUse"
       id="clipPath2956"><path
         d="m -301.9663,389.4688 h 612 v -792 h -612 z"
         id="path2958"
         style="stroke-width:0.999998" /></clipPath><clipPath
       clipPathUnits="userSpaceOnUse"
       id="clipPath2960"><path
         d="m -295.5981,392.1968 h 612 v -792 h -612 z"
         id="path2962"
         style="stroke-width:0.999998" /></clipPath><clipPath
       clipPathUnits="userSpaceOnUse"
       id="clipPath2964"><path
         d="m -287.5356,392.1968 h 612 v -792 h -612 z"
         id="path2966"
         style="stroke-width:0.999998" /></clipPath><clipPath
       clipPathUnits="userSpaceOnUse"
       id="clipPath2968"><path
         d="m -278.7993,388.8843 h 612 v -792 h -612 z"
         id="path2970"
         style="stroke-width:0.999998" /></clipPath><clipPath
       clipPathUnits="userSpaceOnUse"
       id="clipPath2972"><path
         d="m -272.8096,385.8154 h 612 v -792 h -612 z"
         id="path2974"
         style="stroke-width:0.999998" /></clipPath><clipPath
       clipPathUnits="userSpaceOnUse"
       id="clipPath2976"><path
         d="m -263.3535,388.9429 h 612 v -792 h -612 z"
         id="path2978"
         style="stroke-width:0.999998" /></clipPath><clipPath
       clipPathUnits="userSpaceOnUse"
       id="clipPath2980"><path
         d="m -256.7642,390.4043 h 612 v -792 h -612 z"
         id="path2982"
         style="stroke-width:0.999998" /></clipPath><clipPath
       clipPathUnits="userSpaceOnUse"
       id="clipPath2984"><path
         d="m -251.7305,390.4043 h 612 v -792 h -612 z"
         id="path2986"
         style="stroke-width:0.999998" /></clipPath><clipPath
       clipPathUnits="userSpaceOnUse"
       id="clipPath2988"><path
         d="m -246.7646,392.1968 h 612 v -792 h -612 z"
         id="path2990"
         style="stroke-width:0.999998" /></clipPath><clipPath
       clipPathUnits="userSpaceOnUse"
       id="clipPath2992"><path
         d="m -241.4585,392.1968 h 612 v -792 h -612 z"
         id="path2994"
         style="stroke-width:0.999998" /></clipPath><clipPath
       clipPathUnits="userSpaceOnUse"
       id="clipPath2996"><path
         d="m -235.3535,392.1968 h 612 v -792 h -612 z"
         id="path2998"
         style="stroke-width:0.999998" /></clipPath><clipPath
       clipPathUnits="userSpaceOnUse"
       id="clipPath3000"><path
         d="m -230.5244,392.1968 h 612 v -792 h -612 z"
         id="path3002"
         style="stroke-width:0.999998" /></clipPath><clipPath
       clipPathUnits="userSpaceOnUse"
       id="clipPath3004"><path
         d="m -225.5396,392.1968 h 612 v -792 h -612 z"
         id="path3006"
         style="stroke-width:0.999998" /></clipPath><clipPath
       clipPathUnits="userSpaceOnUse"
       id="clipPath3008"><path
         d="m -220.9062,385.6304 h 612 v -792 h -612 z"
         id="path3010"
         style="stroke-width:0.999998" /></clipPath><clipPath
       clipPathUnits="userSpaceOnUse"
       id="clipPath3012"><path
         d="m -208.7031,388.9429 h 612 v -792 h -612 z"
         id="path3014"
         style="stroke-width:0.999998" /></clipPath><clipPath
       clipPathUnits="userSpaceOnUse"
       id="clipPath3016"><path
         d="m -201.8101,392.1968 h 612 v -792 h -612 z"
         id="path3018"
         style="stroke-width:0.999998" /></clipPath><clipPath
       clipPathUnits="userSpaceOnUse"
       id="clipPath3020"><path
         d="m -195.9663,386.3516 h 612 v -792 h -612 z"
         id="path3022"
         style="stroke-width:0.999998" /></clipPath><clipPath
       clipPathUnits="userSpaceOnUse"
       id="clipPath3024"><path
         d="m -190.9146,385.6304 h 612 v -792 h -612 z"
         id="path3026"
         style="stroke-width:0.999998" /></clipPath><clipPath
       clipPathUnits="userSpaceOnUse"
       id="clipPath3028"><path
         d="m -181.3599,388.8843 h 612 v -792 h -612 z"
         id="path3030"
         style="stroke-width:0.999998" /></clipPath><clipPath
       clipPathUnits="userSpaceOnUse"
       id="clipPath3032"><path
         d="m -174.3765,387.4619 h 612 v -792 h -612 z"
         id="path3034"
         style="stroke-width:0.999998" /></clipPath><clipPath
       clipPathUnits="userSpaceOnUse"
       id="clipPath3036"><path
         d="m -169.6641,391.9043 h 612 v -792 h -612 z"
         id="path3038"
         style="stroke-width:0.999998" /></clipPath><clipPath
       clipPathUnits="userSpaceOnUse"
       id="clipPath3040"><path
         d="m -391.9307,335.9482 h 612 v -792 h -612 z"
         id="path3042"
         style="stroke-width:0.999998" /></clipPath><clipPath
       clipPathUnits="userSpaceOnUse"
       id="clipPath3044"><path
         d="m -348.6035,352.6826 h 612 v -792 h -612 z"
         id="path3046"
         style="stroke-width:0.999998" /></clipPath><clipPath
       clipPathUnits="userSpaceOnUse"
       id="clipPath3048"><path
         d="m -338.8857,347.2871 h 612 v -792 h -612 z"
         id="path3050"
         style="stroke-width:0.999998" /></clipPath><clipPath
       clipPathUnits="userSpaceOnUse"
       id="clipPath3052"><path
         d="m -313.0479,346.251 h 612 v -792 h -612 z"
         id="path3054"
         style="stroke-width:0.999998" /></clipPath><clipPath
       clipPathUnits="userSpaceOnUse"
       id="clipPath3056"><path
         d="m -292.708,344.6968 h 612 v -792 h -612 z"
         id="path3058"
         style="stroke-width:0.999998" /></clipPath><clipPath
       clipPathUnits="userSpaceOnUse"
       id="clipPath3060"><path
         d="m -267.0532,337.4111 h 612 v -792 h -612 z"
         id="path3062"
         style="stroke-width:0.999998" /></clipPath><clipPath
       clipPathUnits="userSpaceOnUse"
       id="clipPath3064"><path
         d="m -251.7568,347.2871 h 612 v -792 h -612 z"
         id="path3066"
         style="stroke-width:0.999998" /></clipPath><clipPath
       clipPathUnits="userSpaceOnUse"
       id="clipPath3068"><path
         d="m -233.7212,335.9482 h 612 v -792 h -612 z"
         id="path3070"
         style="stroke-width:0.999998" /></clipPath><clipPath
       clipPathUnits="userSpaceOnUse"
       id="clipPath3072"><path
         d="m -203.4888,347.2871 h 612 v -792 h -612 z"
         id="path3074"
         style="stroke-width:0.999998" /></clipPath><clipPath
       clipPathUnits="userSpaceOnUse"
       id="clipPath3076"><path
         d="m -180.2373,335.9482 h 612 v -792 h -612 z"
         id="path3078"
         style="stroke-width:0.999998" /></clipPath><clipPath
       clipPathUnits="userSpaceOnUse"
       id="clipPath3080"><path
         d="m -173.5425,335.9482 h 612 v -792 h -612 z"
         id="path3082"
         style="stroke-width:0.999998" /></clipPath><clipPath
       clipPathUnits="userSpaceOnUse"
       id="clipPath3084"><path
         d="m -390.2686,367.1304 h 612 v -792 h -612 z"
         id="path3086"
         style="stroke-width:0.999998" /></clipPath><clipPath
       clipPathUnits="userSpaceOnUse"
       id="clipPath3088"><path
         d="m -370.6523,361.5601 h 612 v -792 h -612 z"
         id="path3090"
         style="stroke-width:0.999998" /></clipPath><clipPath
       clipPathUnits="userSpaceOnUse"
       id="clipPath3092"><path
         d="m -357.0449,360.4414 h 612 v -792 h -612 z"
         id="path3094"
         style="stroke-width:0.999998" /></clipPath><clipPath
       clipPathUnits="userSpaceOnUse"
       id="clipPath3096"><path
         d="m -346.9814,369.1113 h 612 v -792 h -612 z"
         id="path3098"
         style="stroke-width:0.999998" /></clipPath><clipPath
       clipPathUnits="userSpaceOnUse"
       id="clipPath3100"><path
         d="m -329.2021,361.5366 h 612 v -792 h -612 z"
         id="path3102"
         style="stroke-width:0.999998" /></clipPath><clipPath
       clipPathUnits="userSpaceOnUse"
       id="clipPath3104"><path
         d="m -320.5869,367.1304 h 612 v -792 h -612 z"
         id="path3106"
         style="stroke-width:0.999998" /></clipPath><clipPath
       clipPathUnits="userSpaceOnUse"
       id="clipPath3108"><path
         d="m -291.9795,360.4414 h 612 v -792 h -612 z"
         id="path3110"
         style="stroke-width:0.999998" /></clipPath><clipPath
       clipPathUnits="userSpaceOnUse"
       id="clipPath3112"><path
         d="m -281.915,369.1113 h 612 v -792 h -612 z"
         id="path3114"
         style="stroke-width:0.999998" /></clipPath><clipPath
       clipPathUnits="userSpaceOnUse"
       id="clipPath3116"><path
         d="m -247.2539,376.6631 h 612 v -792 h -612 z"
         id="path3118"
         style="stroke-width:0.999998" /></clipPath><clipPath
       clipPathUnits="userSpaceOnUse"
       id="clipPath3120"><path
         d="m -224.6597,371.0225 h 612 v -792 h -612 z"
         id="path3122"
         style="stroke-width:0.999998" /></clipPath><clipPath
       clipPathUnits="userSpaceOnUse"
       id="clipPath3124"><path
         d="m -210.4932,369.1113 h 612 v -792 h -612 z"
         id="path3126"
         style="stroke-width:0.999998" /></clipPath><clipPath
       clipPathUnits="userSpaceOnUse"
       id="clipPath3128"><path
         d="m -196.7734,367.1304 h 612 v -792 h -612 z"
         id="path3130"
         style="stroke-width:0.999998" /></clipPath><clipPath
       clipPathUnits="userSpaceOnUse"
       id="clipPath3132"><path
         d="m -174.9624,361.5366 h 612 v -792 h -612 z"
         id="path3134"
         style="stroke-width:0.999998" /></clipPath><clipPath
       clipPathUnits="userSpaceOnUse"
       id="clipPath3136"><path
         d="m -160.5439,368.3188 h 612 v -792 h -612 z"
         id="path3138"
         style="stroke-width:0.999998" /></clipPath><clipPath
       clipPathUnits="userSpaceOnUse"
       id="clipPath3140"><path
         d="m -251.7061,314.8828 h 612 v -792 h -612 z"
         id="path3142"
         style="stroke-width:0.999998" /></clipPath><clipPath
       clipPathUnits="userSpaceOnUse"
       id="clipPath1301-1"><path
         d="M 0,792 H 612 V 0 H 0 Z"
         id="path1299-8" /></clipPath></defs><g
     inkscape:label="Layer 1"
     inkscape:groupmode="layer"
     id="layer1"><g
       id="g27049"
       transform="translate(-13.797909,-88.30662)"><g
         id="g40573"
         transform="translate(-4.9613478,-46.243172)"
         style="display:inline"><path
           style="fill:#93abd2;fill-opacity:1"
           d="m 207.37726,275.23614 c -16.0033,-5.16513 -29.40415,-8.41365 -37.87043,-9.18023 -6.58191,-0.59596 -20.21665,-0.82208 -29.50475,-0.4893 -2.17687,0.078 -3.91472,0.0936 -3.86188,0.0346 0.1685,-0.18801 6.70573,-1.43248 10.5672,-2.01165 10.22635,-1.5338 18.61887,-1.85876 26.82981,-1.03883 12.57056,1.25527 20.4327,2.70314 25.20362,4.64144 2.4025,0.97607 6.36946,3.79683 9.05376,6.4378 1.64938,1.62275 1.95352,2.08943 1.34309,2.06088 -0.22612,-0.0106 -1.01831,-0.2152 -1.76042,-0.45472 z"
           id="path40575" /><path
           style="fill:#aa8166;fill-opacity:1"
           d="m 84.049836,300.63201 -1.311183,1.89784 c -2.824206,4.08782 -5.236991,6.14235 -8.582553,6.22019 -1.216034,0.0283 -1.592721,-0.0428 -2.428744,-0.45822 -1.904388,-0.94636 -3.28765,-2.91774 -3.569215,-5.08673 -0.51623,-3.97673 2.102841,-10.36731 6.491241,-15.83875 2.172045,-2.70809 8.125178,-8.84633 8.619465,-8.84633 0.11215,0 0.512049,-0.38921 0.838135,-0.74365 0.56802,-0.6174 0.648757,-0.71561 1.547475,-5.36415 0.515931,-2.66861 0.882723,-4.85202 0.815093,-4.85202 -0.06763,0 -0.576454,0.75362 -1.130718,1.67472 -2.555217,4.24635 -5.355645,7.55486 -7.240938,8.55468 -0.618199,0.32785 -1.261412,0.48916 -2.142724,0.53739 -1.092042,0.0598 -1.343002,0.009 -1.889023,-0.38105 -0.346321,-0.24747 -0.823658,-0.82013 -1.060749,-1.27258 -0.565609,-1.07937 -0.701409,-3.5727 -0.326023,-5.98587 0.145942,-0.93819 0.247204,-1.72776 0.225027,-1.7546 -0.02218,-0.0268 -0.469518,0.69813 -0.994092,1.61103 -2.165536,3.76864 -4.48599,6.56142 -6.161848,7.4161 -1.022924,0.52168 -2.798799,0.5424 -3.838765,0.0448 -0.928428,-0.44425 -1.788148,-1.53603 -2.040314,-2.59105 -0.684066,-2.86202 0.217496,-7.09581 3.448211,-16.193 1.434334,-4.03886 2.113016,-6.23779 2.113016,-6.84617 0,-0.48069 -0.473808,-0.57031 -1.260931,-0.23852 -1.314769,0.55422 -3.610143,3.51083 -6.383081,8.22189 -0.766969,1.30304 -2.067515,3.47805 -2.890102,4.83337 -1.28753,2.12136 -1.569225,2.74105 -2.02471,4.45401 -1.043842,3.92564 -1.128998,5.53102 -0.417801,7.87651 0.187784,0.6193 0.305553,1.18997 0.261709,1.26815 -0.10331,0.18423 -1.993736,0.14947 -2.577179,-0.0474 -0.247372,-0.0835 -0.36881,-0.16068 -0.269861,-0.17161 0.09895,-0.0109 -0.117541,-0.21133 -0.481088,-0.44534 -1.227399,-0.79007 -1.795707,-1.9256 -2.030542,-4.0572 -0.307034,-2.78697 0.896358,-7.58523 4.221402,-16.83194 0.725442,-2.0174 1.335862,-4.03453 1.390884,-4.59616 0.09806,-1.00091 0.09806,-1.00091 -0.439842,-1.00091 -1.581407,0 -4.419937,3.66266 -8.957436,11.55812 -1.718113,2.98959 -2.051494,3.82776 -2.715245,6.82654 -0.577768,2.61032 -0.724365,5.20444 -0.386653,6.84209 0.202809,0.98348 0.211545,1.31774 0.04087,1.56365 -0.231186,0.33308 -1.255666,0.43193 -1.428213,0.13781 -0.05645,-0.0962 -0.355553,-0.23347 -0.664677,-0.305 -0.798237,-0.1847 -2.015105,-1.54108 -2.386531,-2.66013 -0.860077,-2.59129 -0.472633,-6.6779 1.405943,-14.82936 1.468411,-6.37168 1.620497,-7.31448 1.491227,-9.24425 -0.12502,-1.86633 0.06022,-2.16386 1.347176,-2.16386 1.706601,0 2.873186,0.73946 3.521997,2.23247 0.408649,0.94037 0.441418,1.20145 0.35899,2.86015 -0.05258,1.05801 -0.292738,2.65147 -0.571306,3.79059 -0.264329,1.0809 -0.443012,2.00487 -0.397074,2.05327 0.04594,0.0484 1.199814,-1.68888 2.564169,-3.8606 3.680748,-5.85887 5.744394,-7.86611 8.382,-8.1529 0.758098,-0.0824 1.168849,-0.0184 1.815288,0.28282 2.05668,0.95844 2.393257,3.79755 1.004916,8.47671 -0.298975,1.00764 -0.511893,1.86546 -0.473153,1.90628 0.03874,0.0408 0.952157,-1.31104 2.029813,-3.00412 3.065026,-4.81537 5.397179,-7.01912 7.720008,-7.29494 1.16243,-0.13803 2.005979,0.0871 2.686986,0.71698 1.712248,1.5838 1.290439,5.67514 -1.404997,13.62775 -2.568882,7.57923 -3.129263,10.82777 -2.099032,12.16812 0.298692,0.3886 0.369376,0.40175 0.904524,0.16822 0.993997,-0.43375 3.171045,-3.55807 5.663307,-8.1275 2.158203,-3.95696 2.446388,-4.6622 3.355578,-8.21172 1.263762,-4.93379 1.485109,-6.22939 1.341019,-7.84931 -0.111584,-1.25448 -0.09072,-1.39178 0.239821,-1.57815 0.504842,-0.28464 1.418632,-0.25452 2.494991,0.0822 1.133758,0.35471 1.907515,1.22901 2.290701,2.58838 0.564203,2.00153 0.296074,3.95581 -1.256626,9.15904 -2.262565,7.58204 -3.145794,11.95906 -2.674357,13.25334 0.06083,0.16701 0.316387,0.2998 0.576958,0.2998 1.056283,0 3.784673,-3.7603 7.632399,-10.51906 1.726398,-3.03252 1.726398,-3.03252 2.302883,-6.63364 0.482592,-3.0146 0.557954,-3.8826 0.462717,-5.32937 -0.141182,-2.1447 -0.04997,-2.26344 1.709843,-2.22582 2.046942,0.0438 3.387878,0.99003 3.930304,2.77354 0.175336,0.57651 0.159463,1.30987 -0.08205,3.79065 -0.443715,4.55785 -1.74001,13.304 -2.378839,16.05013 -0.08376,0.36005 0.314856,0.0646 1.764562,-1.30798 5.796036,-5.48762 13.430631,-10.42123 22.337881,-14.43512 9.99337,-4.50334 26.5354,-8.00455 34.00606,-7.19756 4.8813,0.52728 12.08191,1.76706 13.35376,2.29921 0.53972,0.22582 0.53972,0.22582 0.09,0.38493 -0.24738,0.0875 -2.7166,0.37955 -5.48717,0.649 -18.95986,1.84389 -33.09708,5.0624 -45.04033,10.25397 -5.33556,2.31929 -14.826532,7.49408 -19.827537,10.81063 -1.672534,1.10918 -1.674492,1.11139 -1.902977,2.15275 -0.125796,0.57334 -0.22636,1.51006 -0.280643,2.0816 -0.130568,1.37477 -1.392009,6.52318 -2.494093,10.37305 -1.089454,3.80575 -2.269908,7.10563 -3.477324,9.72066 z m -9.760466,3.14071 c 1.608411,-1.07459 3.292284,-3.82022 5.025969,-8.19505 1.638538,-4.13474 4.465725,-13.27466 4.465777,-14.43727 2.4e-5,-0.53997 2.4e-5,-0.53997 -1.114402,0.47383 -3.485102,3.17042 -7.749098,8.73132 -9.250026,12.06345 -1.72229,3.82356 -2.490568,6.58331 -2.373217,8.52488 0.06383,1.05615 0.144412,1.29383 0.569072,1.67866 0.696835,0.63146 1.625642,0.59381 2.676827,-0.1085 z"
           id="path40574"
           sodipodi:nodetypes="csscssssssssscsssssssssssssssssssssssssssssssssssssscsssscssssssssssssssscssssssssssssssccssssssss"
           inkscape:label="my" /><path
           style="fill:#005ea0;fill-opacity:1"
           d="m 37.185225,301.41195 v -22.81849 l 6.431676,0.0484 c 3.537421,0.0266 6.984498,0.11319 7.660171,0.19237 0.83806,0.0982 1.29262,0.0764 1.430261,-0.0686 0.11097,-0.11691 1.056899,-0.0852 1.04561,0.043 -0.05766,0.6547 -0.0046,-0.0392 -0.01627,8.76305 -0.0087,6.54883 0.05494,8.9993 0.200617,8.94814 0.11034,-0.0387 2.519641,-4.07579 5.354003,-8.97121 l 5.153385,-8.90075 9.34617,-0.0491 9.34617,-0.0491 -1.072216,0.98665 c -1.974899,1.81732 -6.038762,6.10685 -7.418125,7.83006 -4.39217,5.48707 -7.004506,11.86389 -6.488518,15.83875 0.378657,2.91693 2.78375,5.3994 5.458238,5.63384 0.899535,0.0788 0.899535,0.0788 5.577118,7.18463 l 4.677582,7.10578 0.08995,-11.24786 0.08995,-11.24785 0.918871,-1.9901 c 2.083439,-4.51231 4.37979,-12.13177 5.930638,-19.67829 0.09057,-0.44074 0.09057,-0.44074 11.912627,-0.35898 11.08481,0.0767 11.92864,0.10604 13.53117,0.47114 5.59552,1.27483 8.51208,3.84331 9.45974,8.33077 0.61287,2.90211 0.0456,6.50267 -1.37849,8.74933 -1.2609,1.98924 -3.32323,3.4929 -6.00664,4.37948 -1.30364,0.43072 -1.73885,0.76001 -1.00446,0.76001 0.19279,0 0.98214,0.21104 1.7541,0.46898 3.05125,1.01953 5.42382,3.09971 6.74834,5.9167 0.77206,1.64201 0.77206,1.64201 0.77206,4.40396 0,2.39012 -0.0566,2.94055 -0.42053,4.08867 -1.40624,4.4365 -4.50678,6.71362 -10.50045,7.71179 -1.17836,0.19624 -6.69623,0.24858 -26.209035,0.24858 H 64.842506 l -5.342861,-9.56081 c -2.938574,-5.25845 -5.437387,-9.594 -5.552918,-9.63457 -0.158311,-0.0556 -0.210057,2.31134 -0.210057,9.60819 v 9.68195 h -8.275723 -8.275722 z m 68.940505,13.31809 c 2.77416,-0.62065 4.14554,-2.14891 4.14554,-4.61978 0,-2.06556 -0.82275,-3.39195 -2.55068,-4.11212 -0.88801,-0.3701 -1.41351,-0.42568 -4.64442,-0.49122 l -3.64312,-0.0739 v 4.75517 4.75516 h 2.86966 c 1.57831,0 3.29867,-0.096 3.82302,-0.2133 z m -0.57692,-18.75298 c 2.88895,-0.49378 4.30543,-1.90699 4.3149,-4.30494 0.008,-1.9031 -0.94199,-3.33672 -2.6854,-4.05457 -0.86346,-0.35554 -1.45567,-0.42242 -4.372,-0.49381 l -3.37326,-0.0826 v 4.56922 4.56922 l 2.47372,-10e-4 c 1.36055,-7.9e-4 2.99946,-0.0913 3.64204,-0.20112 z m 28.3656,28.11125 -10.04562,-0.0506 1.07117,-0.84829 c 1.9187,-1.51948 3.23405,-3.75471 4.01602,-6.82458 0.47516,-1.86541 0.5782,-6.19819 0.18705,-7.8656 -0.63573,-2.71004 -2.58418,-5.60249 -4.65439,-6.90938 l -0.88713,-0.56003 0.86674,-0.72177 c 1.72296,-1.43479 3.14513,-3.84644 3.8317,-6.4976 0.16197,-0.62546 0.34216,-2.16067 0.40042,-3.41158 0.0904,-1.93998 0.0495,-2.51127 -0.27768,-3.88542 -0.21099,-0.88607 -0.64241,-2.15162 -0.95872,-2.81233 -0.66901,-1.39748 -2.51325,-3.57419 -3.82144,-4.51035 l -0.91152,-0.65231 14.75237,0.0681 c 14.22152,0.0657 14.81064,0.0824 16.37154,0.46552 3.36619,0.8262 5.43257,1.8874 7.1041,3.64836 2.89173,3.04644 3.5218,8.25487 1.53246,12.66798 -1.29014,2.86201 -3.76846,4.66456 -7.73702,5.62735 -0.48617,0.11794 -0.40583,0.16727 0.80958,0.49716 0.74211,0.20142 2.19448,0.80496 3.22748,1.3412 4.26555,2.21428 6.15939,5.63376 5.62982,10.16504 -0.62157,5.31841 -3.49194,8.79742 -8.52646,10.33442 -2.16357,0.66053 -4.44097,0.88413 -8.46454,0.83107 -1.90867,-0.0252 -7.99084,-0.0685 -13.51593,-0.0964 z m 10.76525,-9.60597 c 1.13966,-0.43429 2.09068,-1.15063 2.63151,-1.98214 0.32461,-0.4991 0.43814,-0.96956 0.48875,-2.02542 0.11367,-2.37137 -0.61827,-3.70264 -2.45646,-4.46784 -0.91451,-0.3807 -1.4119,-0.43399 -4.66673,-0.50002 l -3.64312,-0.0739 v 4.77292 4.77291 l 3.37326,-0.0769 c 2.66633,-0.0607 3.56177,-0.14869 4.27279,-0.41964 z m -1.53029,-18.50528 c 2.88895,-0.49378 4.30544,-1.90699 4.3149,-4.30494 0.008,-1.9031 -0.94199,-3.33672 -2.68539,-4.05457 -0.86347,-0.35554 -1.45568,-0.42242 -4.37201,-0.49381 l -3.37326,-0.0826 v 4.56922 4.56922 l 2.47373,-10e-4 c 1.36054,-7.9e-4 2.99946,-0.0913 3.64203,-0.20112 z m 22.84927,5.4147 v -22.83868 h 8.27573 8.27572 v 7.96037 7.96037 h 5.66707 5.66707 v -7.96037 -7.96037 h 8.27572 8.27572 v 22.83868 22.83867 h -8.27572 -8.27572 v -8.24466 -8.24467 h -5.66707 -5.66707 v 8.24467 8.24466 h -8.27572 -8.27573 z"
           id="path40573"
           sodipodi:nodetypes="ccssssssscccssssscccsssssssssssssscsssccccsssscccsssccssccccccccsssscssssssccsssssssssscsssssccccssccssccccccccccccccccccccccccccccccc"
           inkscape:label="KBBH" /></g><path
         d="m 102.67148,224.01702 c 1.70692,-1.03982 7.26957,-3.8572 10.07479,-5.1027 11.61337,-5.15627 21.77859,-7.89794 34.72204,-9.36491 6.68081,-0.75719 8.95192,-0.87188 17.18112,-0.86767 10.30683,0.005 10.44677,0.0255 15.17491,2.19327 4.23893,1.94347 8.71573,4.23624 9.01612,4.61755 0.31775,0.40336 0.38202,0.40932 -4.97765,-0.4617 -19.34635,-3.14402 -30.09438,-3.39093 -44.67022,-1.02617 -10.62521,1.72382 -23.78047,5.35428 -34.63209,9.55743 -1.28633,0.49823 -2.50071,0.96469 -2.6986,1.03657 -0.1979,0.0719 0.16641,-0.18987 0.80958,-0.58167 z"
         style="fill:#005ea0;fill-opacity:1"
         id="path1" /><g
         id="g1835"
         transform="matrix(2.8834938,0,0,-3.0478917,-925.88302,1561.7387)"
         style="display:none"
         inkscape:label="g1835"><g
           id="g1527"
           transform="translate(338.1729,410.8818)"><path
             d="M 0,0 H -5.793 V -15.086 H 0 v 6.398 h 0.043 l 3.761,-6.398 h 6.917 L 5.166,-7.068 10.245,0 H 3.652 L 0.043,-5.922 H 0 Z"
             style="fill:#005ea0;fill-opacity:1;fill-rule:evenodd;stroke:none"
             id="path1529" /></g><g
           id="g1531"
           transform="translate(354.0059,408.0288)"><path
             d="m 0,0 h 1.578 c 1.037,0 1.988,-0.346 1.988,-1.47 0,-1.145 -1.102,-1.448 -2.118,-1.448 H 0 Z m 0,-6.03 h 1.556 c 1.081,0 2.162,-0.238 2.162,-1.535 0,-1.167 -1.146,-1.556 -2.205,-1.556 H 0 Z m -5.447,-6.203 h 8.754 c 3.134,0 6.203,0.389 6.203,4.192 0,1.514 -1.296,3.156 -3.393,3.437 v 0.043 c 2.01,0.519 3.112,1.622 3.112,3.697 0,2.874 -2.572,3.717 -5.187,3.717 h -9.489 z"
             style="fill:#005ea0;fill-opacity:1;fill-rule:evenodd;stroke:none"
             id="path1533" /></g><g
           id="g1535"
           transform="translate(386.7119,405.6729)"><path
             d="M 0,0 H -3.869 V 5.209 H -9.661 V -9.877 h 5.792 v 5.425 H 0 V -9.877 H 5.793 V 5.209 H 0 Z"
             style="fill:#005ea0;fill-opacity:1;fill-rule:evenodd;stroke:none"
             id="path1537" /></g><g
           id="g1539"
           transform="translate(392.5039,405.6665)"><path
             d="M 0,0 V 5.209 H -5.792 V -9.877 H 0 v 5.425 z"
             style="fill:#005ea0;fill-opacity:1;fill-rule:evenodd;stroke:none"
             id="path1541" /></g><g
           id="g1543"
           transform="translate(367.043,405.1108)"><path
             d="m 0,0 h 1.448 c 1.016,0 2.118,0.303 2.118,1.448 0,1.124 -0.951,1.47 -1.988,1.47 H 0 Z m 0,-6.203 h 1.513 c 1.059,0 2.205,0.389 2.205,1.556 0,1.297 -1.081,1.535 -2.161,1.535 H 0 Z M -5.086,5.766 h 9.128 c 0,0 5.141,0.288 5.187,-3.712 0.042,-3.488 -3.247,-3.725 -3.247,-3.725 0,0 3.59,-0.576 3.55,-3.43 -0.061,-4.353 -4.789,-4.18 -4.789,-4.18 l -9.569,0.029 c 0,0 2.154,0.736 2.142,4.129 -0.009,2.673 -2.097,3.489 -2.097,3.489 0,0 1.7,0.828 1.857,3.45 0.173,2.883 -2.162,3.95 -2.162,3.95"
             style="fill:#005ea0;fill-opacity:1;fill-rule:evenodd;stroke:none"
             id="path1545" /></g></g><path
         style="display:none;fill:#a98165;stroke:none;stroke-width:1.01337"
         d="m 38.337509,291.0973 c 0.541783,-2.76172 1.914325,-6.19418 0.664425,-8.94741 -0.593381,-1.30708 -3.48347,-3.22193 -4.716176,-1.653 -0.682559,0.86875 -0.202162,4.20423 -0.436296,5.46033 -0.965048,5.17734 -2.468129,10.16157 -3.05979,15.42026 -0.259615,2.30745 -0.132118,5.57628 1.765006,7.128 0.647008,0.52921 2.206599,1.28072 2.99501,0.67205 0.555147,-0.42861 0.139766,-1.52078 0.03826,-2.08884 -0.318356,-1.78155 -0.0452,-3.57357 0.288723,-5.33046 1.073724,-5.64923 4.333987,-10.64891 7.555237,-15.2299 1.172734,-1.66776 2.719287,-4.06655 4.857326,-4.18821 -0.02204,2.80136 -1.454429,5.60587 -2.386989,8.18606 -1.451464,4.01589 -2.773989,8.1043 -3.326173,12.37429 -0.478095,3.69706 1.456986,7.24781 5.351281,6.66307 -0.07574,-1.55602 -0.832249,-2.97452 -0.692906,-4.56895 0.540478,-6.1845 4.193578,-11.35323 7.38784,-16.37214 1.150002,-1.80691 2.390482,-3.68765 3.980547,-5.09941 0.385657,-0.34241 1.529143,-1.25716 1.968982,-0.53351 0.288511,0.47468 -0.05828,1.34116 -0.187641,1.82544 -0.429958,1.60954 -1.056142,3.20347 -1.637119,4.75934 -1.780911,4.76935 -4.267021,10.56137 -3.731615,15.80102 0.302987,2.96514 3.117413,4.60719 5.758676,3.59169 1.696327,-0.65219 3.039616,-2.3125 4.093913,-3.78206 1.228658,-1.71261 2.513883,-3.54123 3.324641,-5.52083 h 0.18094 c -0.839292,3.58445 -1.299263,11.1553 4.342564,9.31787 0.65251,-0.21251 1.252397,-0.57046 1.809405,-0.98139 3.412625,-2.51766 4.557698,-7.02409 7.599501,-9.66911 -0.934257,2.89799 -0.574137,7.13263 -2.123962,9.70892 -1.332327,2.21473 -4.065334,3.8698 -5.837412,5.71209 -4.388129,4.56197 -8.499272,9.80353 -10.178735,16.18102 -0.446051,1.69381 -0.609815,3.43886 -0.127191,5.1401 1.569939,5.53395 7.84115,5.58637 11.391564,2.25143 5.686822,-5.34169 7.925514,-14.77269 9.791719,-22.24067 0.632996,-2.53308 0.704232,-6.30922 1.967302,-8.54905 0.597659,-1.05983 2.105992,-1.68854 3.078088,-2.30226 2.492062,-1.57333 5.01651,-3.11706 7.599491,-4.51975 12.572115,-6.8273 25.669475,-11.20776 39.625915,-13.6126 4.97779,-0.85773 10.00064,-1.50408 15.01805,-2.01494 2.12643,-0.2165 5.56668,0.183 7.41855,-0.98419 -2.15163,-1.00199 -4.74329,-1.22382 -7.05667,-1.57455 -5.36802,-0.81384 -10.34115,-1.22904 -15.7418,-0.54908 -17.82481,2.2442 -36.66733,9.51881 -49.577642,23.06475 0.572026,-3.10354 1.099509,-6.20892 1.583924,-9.32832 0.32324,-2.0815 0.596284,-4.18264 0.781844,-6.28233 0.169283,-1.91559 0.790932,-4.18313 -0.348893,-5.89394 -0.75727,-1.1366 -4.103175,-2.75587 -5.087697,-1.09686 -0.46288,0.77999 0.02465,2.28802 -0.01228,3.18333 -0.09287,2.25055 -0.566957,4.65986 -1.045155,6.85345 -0.692539,3.17687 -3.513346,6.63565 -5.220317,9.32831 -0.696102,1.09805 -2.831322,5.15849 -4.361565,4.79137 -0.605005,-0.14516 -0.585818,-1.0566 -0.580788,-1.55501 0.01456,-1.44542 0.419168,-2.97902 0.743864,-4.37859 1.123242,-4.84179 3.710015,-10.00181 3.592701,-15.03953 -0.05872,-2.52172 -1.944876,-5.34708 -4.691191,-4.48642 -0.578115,0.18118 -0.729587,0.66248 -0.700162,1.2508 0.101335,2.02586 -0.174373,3.73149 -0.6446,5.71047 -1.288631,5.42326 -3.310146,9.99264 -6.265341,14.65878 -0.779091,1.23015 -2.076269,4.06144 -3.617969,4.31631 -0.792572,0.13103 -1.08175,-0.81996 -1.18714,-1.4607 -0.263166,-1.59996 0.306566,-3.42061 0.720827,-4.94971 1.507776,-5.56543 4.532042,-11.20932 4.257961,-17.13365 -0.120533,-2.60538 -2.269249,-3.73199 -4.516247,-3.03775 -2.252779,0.69604 -3.931741,2.66155 -5.309816,4.56075 -1.270752,1.75129 -2.66028,3.7185 -3.556261,5.71121 -0.174741,-2.86197 1.788338,-5.34838 0.996986,-8.37645 -0.749539,-2.86807 -3.791259,-2.89829 -5.882374,-1.62492 -4.122064,2.51007 -5.728868,7.68466 -8.685136,11.33398 z"
         id="path27061" /><g
         id="g1295"
         transform="matrix(0.66420815,0,0,-0.69367517,-37.221805,627.8209)"
         style="display:none"><g
           id="g1303"
           transform="translate(183.3105,460.7529)"><path
             id="path1305"
             style="fill:#aa8266;fill-opacity:1;fill-rule:evenodd;stroke:none"
             d="M 88.067452,39.426908 C 76.354577,39.298748 54.912098,35.296128 39.607488,28.490384 7.88652,14.383398 -4.2386149e-4,6.3841774e-4 -4.2386149e-4,6.3841774e-4 c 0,0 13.69410686149,9.61888368226 33.41308786149,18.42187458226 32.795967,14.641986 74.702926,15.78615 78.711916,16.702149 4.008,0.914999 -9.83972,2.974677 -19.67871,4.117675 -1.229874,0.143 -2.70515,0.202879 -4.378418,0.184571 z" /></g><g
           id="g1307"
           transform="translate(207.2495,467.9658)"><path
             d="m 0,0 c 0,0 24.05,14.871 55.389,20.59 25.042,4.571 54.66,4.576 60.49,2.059 7.579,-3.271 21.135,-9.151 17.127,-8.922 -4.008,0.229 -31.184,5.982 -55.389,4.576 C 38.262,16.015 0,0 0,0"
             style="fill:#005ea0;fill-opacity:1;fill-rule:evenodd;stroke:none"
             id="path1309" /></g><g
           id="g1311"
           transform="translate(251.7061,477.1172)"
           clip-path="url(#clipPath3140)"><path
             id="path1313"
             style="fill:#92aad1;fill-opacity:1;fill-rule:evenodd;stroke:none"
             d="M 44.676736,5.5430766 C 21.531921,5.3753097 4.6396026e-4,1.0784591e-4 4.6396026e-4,1.0784591e-4 c 0,0 27.69416703974,1.60248255409 51.74414303974,-0.22851562591 C 75.795583,-2.0584059 110.04908,-13.956439 112.60008,-14.185439 c 2.55,-0.228 -8.74819,9.7880106 -16.034181,12.5830078 -6.558994,2.51699748 -18.060234,4.7087441 -38.991213,6.6357421 -4.270152,0.3932809 -8.611873,0.5408336 -12.89795,0.5097657 z" /></g></g></g></g></svg>
