<?xml version="1.0" encoding="UTF-8" standalone="no"?>
<!-- Created with Inkscape (http://www.inkscape.org/) -->

<svg
   width="26.130638mm"
   height="24.484406mm"
   viewBox="0 0 26.130638 24.484406"
   version="1.1"
   id="svg5"
   xml:space="preserve"
   xmlns:inkscape="http://www.inkscape.org/namespaces/inkscape"
   xmlns:sodipodi="http://sodipodi.sourceforge.net/DTD/sodipodi-0.dtd"
   xmlns="http://www.w3.org/2000/svg"
   xmlns:svg="http://www.w3.org/2000/svg"><sodipodi:namedview
     id="namedview7"
     pagecolor="#ffffff"
     bordercolor="#000000"
     borderopacity="0.25"
     inkscape:showpageshadow="2"
     inkscape:pageopacity="0.0"
     inkscape:pagecheckerboard="0"
     inkscape:deskcolor="#d1d1d1"
     inkscape:document-units="mm"
     showgrid="false"
     inkscape:zoom="1.5625561"
     inkscape:cx="227.51183"
     inkscape:cy="383.34623"
     inkscape:window-width="1920"
     inkscape:window-height="1057"
     inkscape:window-x="1912"
     inkscape:window-y="-8"
     inkscape:window-maximized="1"
     inkscape:current-layer="layer1" /><defs
     id="defs2" /><g
     inkscape:label="Layer 1"
     inkscape:groupmode="layer"
     id="layer1"
     transform="translate(-66.711153,-89.036184)"><path
       style="fill:#1f407b;fill-opacity:1;stroke-width:0.169333"
       d="m 79.627019,113.26852 c -4.78491,-1.04854 -8.72401,-4.78431 -9.78395,-9.27889 -0.32486,-1.37755 -0.31685,-3.94585 0.0164,-5.247605 1.02963,-4.02235 4.43323,-7.620194 8.50339,-8.988665 4.55428,-1.531242 9.37009,-0.581764 13.05277,2.573465 l 0.57115,0.489348 -0.86694,0.636392 -0.86695,0.6364 -0.95689,-0.85286 c -3.1064,-2.768691 -7.35205,-3.344795 -11.06686,-1.501697 -1.57464,0.781255 -3.44535,2.691777 -4.35058,4.443177 -1.50592,2.91358 -1.72638,5.579935 -0.71609,8.660845 0.96634,2.9469 3.49346,5.52781 6.38909,6.52511 0.94575,0.32573 1.43395,0.34924 3.24958,0.39145 1.29557,8.5e-4 2.45568,-0.0903 2.96333,-0.23472 1.50333,-0.41899 3.11332,-1.38092 4.50935,-2.6942 l 1.33931,-1.25993 0.67075,0.46482 c 0.67074,0.46483 0.67074,0.46483 0.34647,0.92023 -1.26041,1.77008 -4.12559,3.54362 -6.85063,4.24052 -1.58568,0.40552 -4.48735,0.44175 -6.15268,0.0768 z m -8.9743,-3.27536 c -5.12997,-3.31566 -5.28814,-13.345335 -0.26496,-16.801375 0.40114,-0.27599 0.72935,-0.451243 0.72935,-0.389444 0,0.0618 -0.33388,0.617914 -0.74196,1.235804 -1.50385,2.27704 -2.25201,4.28134 -2.42329,6.491945 -0.24578,3.17212 1.03006,6.79941 3.25958,9.26722 0.34677,0.38384 0.59407,0.73433 0.54953,0.77885 -0.0445,0.0445 -0.54324,-0.21782 -1.10825,-0.583 z"
       id="path404"
       sodipodi:nodetypes="sscsscccsssssccscsssssssssssss"
       inkscape:export-filename="credibleIcon.svg"
       inkscape:export-xdpi="96"
       inkscape:export-ydpi="96" /></g></svg>
